<svg xmlns="http://www.w3.org/2000/svg" version="1.1" xmlns:xlink="http://www.w3.org/1999/xlink"
    xmlns:svgjs="http://svgjs.com/svgjs" width="512" height="512" x="0" y="0" viewBox="0 0 60 60"
    style="enable-background:new 0 0 512 512" xml:space="preserve" class="">
    <g>
        <g xmlns="http://www.w3.org/2000/svg" fill="#262626">
            <path
                d="m2.738 25.194c-.019.1 1.367.035 1.449-.388 2.347-12.106 12.885-21.449 25.338-21.53a2.389 2.389 0 0 0 .62-.184l.051.051-1.864 1.865c-.245.244.207.368.376.363a1.4 1.4 0 0 0 .96-.379q1-1 2-2a.188.188 0 0 0 .008-.263q-1-1-2-2c-.324-.325-1.688.207-1.352.542l1.486 1.486c-13.035.384-24.553 9.449-27.072 22.437z"
                fill="#262626" data-original="#262626"></path>
            <path
                d="m25.435 56.112a26.962 26.962 0 0 1 -21.667-25.39l.558.558c.223.222.706.115.956 0 .16-.072.623-.333.392-.564q-1-1-2-2c-.284-.284-1.008-.073-1.252.171q-1 1-2 2c-.075.075-.179.182-.146.3s.177.172.278.189a1.3 1.3 0 0 0 1.024-.274l.711-.711a27.627 27.627 0 0 0 22.276 26.573c.515.1 1.711-.689.87-.852z"
                fill="#262626" data-original="#262626"></path>
            <path
                d="m55.805 35.059a26.484 26.484 0 0 1 -25.7 21.423l1.545-1.545c.222-.222-.2-.229-.336-.215a1.746 1.746 0 0 0 -.972.341l-2 2c-.063.063-.1.111-.03.179l2 2c.065.065.3.042.366.036a2.265 2.265 0 0 0 .564-.129c.109-.04.61-.219.438-.391l-1.266-1.267a28.112 28.112 0 0 0 26.853-22.55c.139-.7-1.34-.512-1.462.118z"
                fill="#262626" data-original="#262626"></path>
            <path
                d="m59.434 28.572a1.16 1.16 0 0 0 -1.024.274l-.7.7a27.739 27.739 0 0 0 -22.455-26.596c-.7-.135-1.473.838-.51 1.024a26.849 26.849 0 0 1 21.482 25.287l-.558-.558a.908.908 0 0 0 -.968-.048c-.183.088-.619.393-.37.642l2 2a1 1 0 0 0 1.259-.143l2-2a.325.325 0 0 0 -.156-.582z"
                fill="#262626" data-original="#262626"></path>
        </g>
    </g>
</svg>