<svg xmlns="http://www.w3.org/2000/svg" viewBox="0 0 256 256">
    <g>
        <g>
            <g>
                <g>
                    <g>
                        <ellipse cx="214.653" cy="59.167" fill="#f98fa6" rx="34.801" ry="34.801"
                            transform="matrix(.707 -.707 .707 .707 21.033 169.112)" data-original="#f98fa6"></ellipse>
                    </g>
                </g>
                <g>
                    <g>
                        <circle cx="214.116" cy="138.933" fill="#70d6f9" r="34.801" data-original="#70d6f9"></circle>
                    </g>
                </g>
                <g>
                    <g>
                        <circle cx="214.116" cy="218.699" fill="#b598f9" r="34.801" data-original="#b598f9"></circle>
                    </g>
                </g>
                <g>
                    <g>
                        <path
                            d="m231.115 41.147h-31.956c-.841 0-1.522.682-1.522 1.522v6.956c0 .841.682 1.522 1.522 1.522h31.956c.841 0 1.522-.682 1.522-1.522v-6.956c0-.841-.681-1.522-1.522-1.522z"
                            fill="#70d6f9" data-original="#70d6f9"></path>
                    </g>
                </g>
                <g>
                    <g>
                        <path
                            d="m206.115 60.147h-6.956c-.841 0-1.522.682-1.522 1.522v13.956c0 .841.682 1.522 1.522 1.522h6.956c.841 0 1.522-.682 1.522-1.522v-13.956c0-.841-.681-1.522-1.522-1.522z"
                            fill="#f5c84c" data-original="#f5c84c"></path>
                    </g>
                </g>
                <g>
                    <g>
                        <path
                            d="m228.788 198.199h-29.344c-1.286 0-2.328 1.042-2.328 2.328v36.344c0 1.286 1.042 2.328 2.328 2.328h29.344c1.286 0 2.328-1.042 2.328-2.328v-36.344c0-1.286-1.043-2.328-2.328-2.328z"
                            fill="#5290db" data-original="#5290db"></path>
                    </g>
                </g>
                <g>
                    <g>
                        <path d="m197.116 211.699h34v14h-34z" fill="#3a70bf" data-original="#3a70bf"></path>
                    </g>
                </g>
                <g>
                    <g>
                        <g>
                            <path
                                d="m214.653 21.866c-20.568 0-37.301 16.733-37.301 37.301s16.733 37.301 37.301 37.301 37.301-16.733 37.301-37.301-16.733-37.301-37.301-37.301zm0 69.602c-17.811 0-32.301-14.49-32.301-32.301s14.49-32.301 32.301-32.301 32.301 14.49 32.301 32.301-14.49 32.301-32.301 32.301z"
                                fill="#000000" data-original="#000000" class=""></path>
                        </g>
                    </g>
                </g>
                <g>
                    <g>
                        <g>
                            <path
                                d="m214.116 101.632c-20.568 0-37.301 16.733-37.301 37.301s16.733 37.301 37.301 37.301 37.301-16.733 37.301-37.301-16.733-37.301-37.301-37.301zm0 69.602c-17.811 0-32.301-14.49-32.301-32.301s14.49-32.301 32.301-32.301 32.301 14.49 32.301 32.301-14.49 32.301-32.301 32.301z"
                                fill="#000000" data-original="#000000" class=""></path>
                        </g>
                    </g>
                </g>
                <g>
                    <g>
                        <path
                            d="m231.115 66.146h-13.955c-1.381 0-2.5 1.119-2.5 2.5s1.119 2.5 2.5 2.5h13.956c1.381 0 2.5-1.119 2.5-2.5s-1.12-2.5-2.501-2.5z"
                            fill="#000000" data-original="#000000" class=""></path>
                    </g>
                </g>
                <g>
                    <g>
                        <path
                            d="m231.115 57.646h-13.955c-1.381 0-2.5 1.119-2.5 2.5s1.119 2.5 2.5 2.5h13.956c1.381 0 2.5-1.119 2.5-2.5s-1.12-2.5-2.501-2.5z"
                            fill="#000000" data-original="#000000" class=""></path>
                    </g>
                </g>
                <g>
                    <g>
                        <path
                            d="m231.115 74.646h-13.955c-1.381 0-2.5 1.119-2.5 2.5s1.119 2.5 2.5 2.5h13.956c1.381 0 2.5-1.119 2.5-2.5s-1.12-2.5-2.501-2.5z"
                            fill="#000000" data-original="#000000" class=""></path>
                    </g>
                </g>
                <g>
                    <g>
                        <path
                            d="m235.021 137.046-8.306-8.307c-.976-.977-2.56-.977-3.535 0-.977.976-.977 2.559 0 3.535l6.538 6.539-6.538 6.539c-.977.976-.977 2.559 0 3.535.488.488 1.128.732 1.768.732s1.28-.244 1.768-.732l8.306-8.306c.976-.976.976-2.559-.001-3.535z"
                            fill="#000000" data-original="#000000" class=""></path>
                    </g>
                </g>
                <g>
                    <g>
                        <path
                            d="m198.556 138.813 6.539-6.539c.977-.976.977-2.559 0-3.535-.976-.977-2.56-.977-3.535 0l-8.307 8.307c-.469.469-.732 1.104-.732 1.768s.263 1.299.732 1.768l8.307 8.306c.488.488 1.128.732 1.768.732s1.28-.244 1.768-.732c.977-.976.977-2.559 0-3.536z"
                            fill="#000000" data-original="#000000" class=""></path>
                    </g>
                </g>
                <g>
                    <g>
                        <path
                            d="m217.774 126.344c-1.329-.389-2.714.375-3.1 1.7l-5.874 20.138c-.387 1.326.375 2.713 1.7 3.1.234.068.47.101.701.101 1.083 0 2.081-.708 2.399-1.8l5.874-20.138c.387-1.326-.374-2.714-1.7-3.101z"
                            fill="#000000" data-original="#000000" class=""></path>
                    </g>
                </g>
                <g>
                    <g>
                        <g>
                            <path
                                d="m214.116 181.398c-20.568 0-37.301 16.733-37.301 37.301s16.733 37.301 37.301 37.301 37.301-16.733 37.301-37.301-16.733-37.301-37.301-37.301zm0 69.602c-17.811 0-32.301-14.49-32.301-32.301s14.49-32.301 32.301-32.301 32.301 14.49 32.301 32.301-14.49 32.301-32.301 32.301z"
                                fill="#000000" data-original="#000000" class=""></path>
                        </g>
                    </g>
                </g>
                <g>
                    <g>
                        <path
                            d="m176.298 111.21c-3.157-.561-5.613-3.017-6.245-6.104 0-.14-.281-.14-.281 0-.632 3.087-3.087 5.543-6.245 6.104-.14 0-.14.211 0 .281 3.157.561 5.613 3.017 6.245 6.104 0 .14.281.14.281 0 .631-3.087 3.087-5.543 6.245-6.104.141-.071.141-.281 0-.281z"
                            fill="#87d147" data-original="#87d147"></path>
                    </g>
                </g>
                <g>
                    <g>
                        <path
                            d="m128.488 0c-1.878 0-3.4 1.522-3.4 3.4s1.522 3.4 3.4 3.4 3.4-1.522 3.4-3.4-1.522-3.4-3.4-3.4z"
                            fill="#fc657e" data-original="#fc657e"></path>
                    </g>
                </g>
                <g>
                    <g>
                        <path
                            d="m157.488 24.397c-4.5-.8-8-4.3-8.9-8.7 0-.2-.4-.2-.4 0-.9 4.4-4.4 7.9-8.9 8.7-.2 0-.2.3 0 .4 4.5.8 8 4.3 8.9 8.7 0 .2.4.2.4 0 .9-4.4 4.4-7.9 8.9-8.7.2-.1.2-.4 0-.4z"
                            fill="#f5c84c" data-original="#f5c84c"></path>
                    </g>
                </g>
                <g>
                    <g>
                        <path
                            d="m230.125 209.199h-31.875c-1.381 0-2.5 1.119-2.5 2.5s1.119 2.5 2.5 2.5h31.875c1.381 0 2.5-1.119 2.5-2.5s-1.119-2.5-2.5-2.5z"
                            fill="#000000" data-original="#000000" class=""></path>
                    </g>
                </g>
                <g>
                    <g>
                        <path
                            d="m230.125 223.199h-31.937c-1.381 0-2.5 1.119-2.5 2.5s1.119 2.5 2.5 2.5h31.937c1.381 0 2.5-1.119 2.5-2.5s-1.12-2.5-2.5-2.5z"
                            fill="#000000" data-original="#000000" class=""></path>
                    </g>
                </g>
                <g>
                    <g>
                        <g>
                            <path
                                d="m231.115 38.646h-31.955c-2.218 0-4.022 1.805-4.022 4.022v6.956c0 2.218 1.805 4.022 4.022 4.022h31.956c2.218 0 4.022-1.804 4.022-4.022v-6.956c-.001-2.217-1.805-4.022-4.023-4.022zm-.978 10h-30v-5h30z"
                                fill="#000000" data-original="#000000" class=""></path>
                        </g>
                    </g>
                </g>
                <g>
                    <g>
                        <g>
                            <path
                                d="m206.115 57.646h-6.956c-2.218 0-4.022 1.805-4.022 4.022v13.956c0 2.218 1.805 4.022 4.022 4.022h6.956c2.218 0 4.022-1.804 4.022-4.022v-13.955c0-2.218-1.804-4.023-4.022-4.023zm-.978 17h-5v-12h5z"
                                fill="#000000" data-original="#000000" class=""></path>
                        </g>
                    </g>
                </g>
                <g>
                    <g>
                        <g>
                            <path
                                d="m228.788 195.699h-29.344c-2.662 0-4.828 2.166-4.828 4.828v36.344c0 2.662 2.166 4.828 4.828 4.828h29.344c2.662 0 4.828-2.166 4.828-4.828v-36.344c0-2.662-2.166-4.828-4.828-4.828zm-.172 41h-29v-36h29z"
                                fill="#000000" data-original="#000000" class=""></path>
                        </g>
                    </g>
                </g>
                <g>
                    <g>
                        <path
                            d="m18.246 117.453h-2.3v-2.3c0-1.7-1.4-3.2-3.2-3.2s-3.2 1.4-3.2 3.2v2.3h-2.3c-1.7 0-3.2 1.4-3.2 3.2s1.4 3.2 3.2 3.2h2.3v2.3c0 1.7 1.4 3.2 3.2 3.2s3.2-1.4 3.2-3.2v-2.3h2.3c1.7 0 3.2-1.4 3.2-3.2s-1.4-3.2-3.2-3.2z"
                            fill="#70d6f9" data-original="#70d6f9"></path>
                    </g>
                </g>
                <g>
                    <g>
                        <path
                            d="m22.488 140.353c-1.878 0-3.4 1.522-3.4 3.4s1.522 3.4 3.4 3.4 3.4-1.522 3.4-3.4c0-1.877-1.522-3.4-3.4-3.4z"
                            fill="#f5c84c" data-original="#f5c84c"></path>
                    </g>
                </g>
            </g>
        </g>
    </g>
</svg>