<svg width="68" height="38" viewBox="0 0 68 38" fill="none" xmlns="http://www.w3.org/2000/svg" style="opacity:1">
  <path d="M4.73228 33.8696C13.6578 33.8696 22.5833 33.8696 31.5087 33.8696C39.9759 33.8696 49.3026 34.5422 57.6044 32.8986C64.4042 31.5523 66.4434 26.9346 66.9459 21.9275C68.1476 9.95536 49.0482 3.73837 36.3686 1.86956C31.8042 1.19683 27.2769 0.999997 22.64 0.999996C17.6981 0.999996 12.8186 1.15572 8.36299 3.02898C2.95323 5.30341 1.40031 10.8643 1.04484 15.087C0.673103 19.503 2.64396 24.072 5.79123 27.7536C9.02937 31.5415 12.9924 33.2549 18.1394 35.1739C19.7975 35.7921 21.0126 36.5504 22.7723 37" stroke="black" stroke-width="0.5" stroke-linecap="round" style="stroke-dashoffset:0px;stroke-dasharray:184.943px"/>
</svg>
