<svg xmlns="http://www.w3.org/2000/svg" viewBox="0 0 60 60"><g><path d="M16.728,47.5a.5.5,0,0,1-.318-.887l3.8-3.122-5.947,3.434A.5.5,0,0,1,13.7,46.1l4-3.238a.457.457,0,0,1-.119-.068.5.5,0,0,1-.177-.527l.41-1.5a.5.5,0,0,1-.032-.883l.5-.29a.5.5,0,0,1,.733.564l-.328,1.2,3.068-1.77a.5.5,0,0,1,.564.821L19.27,42.877l5.713-3.3a.5.5,0,0,1,.568.819l-3.8,3.121,6.84-3.95a.5.5,0,0,1,.572.815l-3.987,3.367,4.607-2.659a.5.5,0,0,1,.571.816l-2.113,1.769,1.794-1.035a.5.5,0,0,1,.609.781l-1.289,1.325,1.347-.777a.5.5,0,0,1,.62.768l-.183.2.322-.185a.5.5,0,0,1,.714.246l.5,1.249,1.047-.6a.5.5,0,0,1,.5.866l-1.546.892a.491.491,0,0,1-.413.04.5.5,0,0,1-.3-.286l-.5-1.249-2.6,1.5a.5.5,0,0,1-.62-.768l.185-.2-1.689.975a.5.5,0,0,1-.608-.781l1.288-1.325-3.656,2.11a.5.5,0,0,1-.572-.816l2.115-1.77-4.489,2.591a.5.5,0,0,1-.572-.815l3.986-3.366-7.251,4.187A.5.5,0,0,1,16.728,47.5Z" fill="#b9bfcc"></path><path d="M27.348,50.471a.5.5,0,0,1-.334-.872l.833-.749L25.155,50.4a.5.5,0,0,1-.618-.771l1.41-1.531-3.988,2.3a.5.5,0,0,1-.612-.777L22.708,48.2,18.884,50.4a.5.5,0,0,1-.611-.779l1.341-1.392L15.853,50.4a.5.5,0,0,1-.6-.786l1.256-1.257L12.966,50.4a.5.5,0,0,1-.626-.762L13.8,47.982l-3.987,2.3a.5.5,0,0,1-.651-.732l1.4-1.867L8.413,48.924a.5.5,0,0,1-.624-.1.5.5,0,0,1-.026-.632l.535-.715a.5.5,0,0,1-.19-.929L9.753,45.6a.5.5,0,0,1,.65.732l-.382.512L12.177,45.6a.5.5,0,0,1,.65.732l-1.4,1.867,4.5-2.6a.5.5,0,0,1,.626.762L15.1,48.019,19.292,45.6a.5.5,0,0,1,.6.786L18.641,47.64,22.179,45.6a.5.5,0,0,1,.61.779l-1.341,1.392L25.21,45.6a.5.5,0,0,1,.612.777L24.461,47.8,28.284,45.6a.5.5,0,0,1,.618.771L27.491,47.9l3.99-2.3a.5.5,0,0,1,.584.8l-.833.749L33.924,45.6a.5.5,0,0,1,.652.729L33.09,48.337l4.722-2.727a.5.5,0,0,1,.594.8l-1.063,1.006,1.892-1.092a.5.5,0,0,1,.68.689l-.935,1.569.554-.319a.5.5,0,1,1,.5.865L37.819,50.4a.5.5,0,0,1-.679-.688l.934-1.569L34.162,50.4a.5.5,0,0,1-.65-.133.5.5,0,0,1,.056-.663l1.061-1-3.118,1.8a.5.5,0,0,1-.653-.729l1.487-2.011L27.6,50.4A.49.49,0,0,1,27.348,50.471Z" fill="#ccd0da"></path><path d="M21.183,41.471a.5.5,0,0,1-.277-.917l.053-.035-1.532.884a.5.5,0,0,1-.549-.833l5.166-3.853L15.926,41.4a.5.5,0,0,1-.541-.84l4.1-2.929L12.959,41.4a.5.5,0,0,1-.551-.832l5.327-4.01L9.347,41.4a.5.5,0,0,1-.557-.827l5.772-4.492L5.348,41.4a.5.5,0,0,1-.543-.838l4.441-3.208L2.885,41.029a.5.5,0,0,1-.536-.842l2.727-1.905-3.2,1.848a.5.5,0,0,1-.536-.843l1.438-1-1.369.79a.5.5,0,0,1-.55-.833l2.1-1.571-1.682.971a.5.5,0,0,1-.6-.79l2.458-2.4L1.274,35.521a.5.5,0,0,1-.7-.652l.807-1.659A.494.494,0,0,1,.9,32.963a.5.5,0,0,1,.183-.684L2.263,31.6a.5.5,0,0,1,.7.652l-.774,1.59L6.073,31.6a.5.5,0,0,1,.6.79l-2.457,2.4L9.749,31.6a.5.5,0,0,1,.55.833L8.2,34l4.165-2.4a.5.5,0,0,1,.536.842l-1.434,1,3.2-1.844a.5.5,0,0,1,.536.843l-2.729,1.905L17.229,31.6a.5.5,0,0,1,.542.838l-4.438,3.206,7.007-4.045a.5.5,0,0,1,.556.827l-5.771,4.491,9.215-5.319a.5.5,0,0,1,.551.832l-5.327,4.011,8.389-4.844a.5.5,0,0,1,.541.84l-4.105,2.931,6.532-3.771a.5.5,0,0,1,.549.833l-5.165,3.852,8.118-4.686a.5.5,0,0,1,.526.849l-.058.039,1.539-.888a.5.5,0,0,1,.537.842L33.45,34.9l5.738-3.312a.5.5,0,0,1,.538.842l-3.447,2.416,5.644-3.258a.5.5,0,0,1,.526.849l-.1.067,1.588-.917a.5.5,0,0,1,.67.162.5.5,0,0,1-.13.678L40.446,35.3l5.706-3.294a.5.5,0,0,1,.539.841l-3.286,2.33,3.315-1.913a.5.5,0,0,1,.567.819L43.131,37.5l3.59-2.072a.5.5,0,0,1,.565.82l-1.44,1.174.875-.505a.5.5,0,0,1,.579.809l-.5.434a.491.491,0,0,1,.467.249.5.5,0,0,1-.182.683L43.082,41.4a.5.5,0,0,1-.579-.808l.3-.263L40.946,41.4a.5.5,0,0,1-.565-.82l1.44-1.174L38.366,41.4a.5.5,0,0,1-.567-.819l4.153-3.411L34.624,41.4a.5.5,0,0,1-.539-.84l3.29-2.333-5.5,3.173a.5.5,0,0,1-.54-.839l4.029-2.871L28.937,41.4a.5.5,0,0,1-.526-.849l.1-.066-1.585.915a.5.5,0,0,1-.537-.841l3.446-2.416L24.19,41.4a.5.5,0,0,1-.537-.841l3.519-2.472L21.433,41.4A.5.5,0,0,1,21.183,41.471Z" fill="#ccd0da"></path><path d="M3.6,33.5a.5.5,0,0,1-.264-.925l16.128-9.994L1.28,33.075a.5.5,0,0,1-.513-.857L20.729,19.805,1.28,31.034a.5.5,0,0,1-.51-.859l12.944-7.932L1.28,29.422a.5.5,0,0,1-.514-.858L20.048,16.542,1.28,27.377a.5.5,0,0,1-.512-.858L13.91,18.405,1.28,25.7a.5.5,0,0,1-.509-.86l3.93-2.4L1.28,24.416a.5.5,0,0,1-.517-.856L16.5,13.59,1.28,22.375a.5.5,0,0,1-.518-.855l13.443-8.561L1.279,20.421a.5.5,0,0,1-.512-.858l2.6-1.605-2.083,1.2a.5.5,0,0,1-.518-.854l8.727-5.57-8.209,4.74a.5.5,0,0,1-.524-.851l9.876-6.487-9.352,5.4a.5.5,0,0,1-.519-.855l3.225-2.06L1.279,14.185a.5.5,0,0,1-.534-.845l8.3-5.74L1.279,12.084a.5.5,0,0,1-.528-.849l3.432-2.3-2.9,1.676A.5.5,0,0,1,.74,9.771L4.928,6.8,1.279,8.9a.5.5,0,0,1-.55-.833L3.921,5.687,1.279,7.212a.5.5,0,0,1-.595-.795l3.005-2.87L1.279,4.938A.5.5,0,0,1,.631,4.2L1.76,2.718a.5.5,0,0,1-.332-.926L3.361.675a.5.5,0,0,1,.649.736L2.931,2.83,6.8.6a.5.5,0,0,1,.6.8L4.389,4.262,10.736.6a.5.5,0,0,1,.55.833L8.093,3.816,13.67.6a.5.5,0,0,1,.539.841L10.021,4.41,16.626.6a.5.5,0,0,1,.528.848l-3.43,2.3L19.176.6a.5.5,0,0,1,.534.844l-8.3,5.739L22.813.6a.5.5,0,0,1,.52.854L20.1,3.516,25.156.6a.5.5,0,0,1,.525.851L15.805,7.935,28.516.6a.5.5,0,0,1,.518.854l-8.727,5.57L31.433.6a.5.5,0,0,1,.512.858L29.35,3.061,33.617.6a.5.5,0,0,1,.519.855L20.7,10.006,37,.6a.5.5,0,0,1,.518.856L21.786,11.421,40.535.6a.5.5,0,0,1,.511.86L37.1,3.858,42.755.6a.5.5,0,0,1,.513.859L30.127,9.568,45.07.94a.5.5,0,0,1,.515.857L26.3,13.82,46.37,2.234a.5.5,0,0,1,.511.859L33.933,11.027,46.72,3.645a.5.5,0,0,1,.513.857L27.262,16.92,46.723,5.685a.5.5,0,0,1,.513.858L31.119,16.531l15.6-9.01a.5.5,0,0,1,.518.855L27.57,20.887,46.727,9.826a.5.5,0,0,1,.518.855L31.358,20.775,46.729,11.9a.5.5,0,0,1,.511.859l-1.481.908.97-.56a.5.5,0,0,1,.524.851L32.52,23.6l14.212-8.206a.5.5,0,0,1,.523.852L36.529,23.231l10.2-5.892a.5.5,0,0,1,.516.857l-.452.282a.5.5,0,0,1,.454.887l-.44.278a.5.5,0,0,1,.46.878l-8.937,6.247,8.4-4.852a.5.5,0,0,1,.535.844L41.91,26.476l4.831-2.789a.5.5,0,0,1,.542.838l-4.256,3.067,3.715-2.144a.5.5,0,0,1,.536.843l-.67.468.136-.078a.5.5,0,0,1,.57.817L44.738,29.65l2.008-1.159a.5.5,0,0,1,.592.8l-1.147,1.072.556-.321a.5.5,0,0,1,.718.609l-.481,1.276a.5.5,0,0,1,.265.932l-.943.545a.5.5,0,0,1-.718-.609l.448-1.188-3.116,1.8a.5.5,0,0,1-.592-.8l1.147-1.073L40.23,33.407a.5.5,0,0,1-.57-.816l2.576-2.153-5.147,2.971a.5.5,0,0,1-.536-.843l.668-.466L34.95,33.41a.5.5,0,0,1-.542-.838l4.256-3.067-6.77,3.908a.5.5,0,0,1-.672-.165.5.5,0,0,1,.136-.679l5.363-3.715-7.9,4.561a.5.5,0,0,1-.536-.843l8.939-6.247L24.938,33.417a.5.5,0,0,1-.516-.855l.273-.172-1.784,1.029a.5.5,0,0,1-.515-.856l.35-.22L20.881,33.42a.5.5,0,0,1-.523-.852L31.089,25.58,17.506,33.422a.5.5,0,0,1-.524-.851l14.727-9.636L13.54,33.425a.5.5,0,0,1-.512-.859l1.5-.921-3.086,1.781a.5.5,0,0,1-.518-.855L26.809,22.48,7.846,33.429a.5.5,0,0,1-.519-.855L27,20.064,3.848,33.431A.494.494,0,0,1,3.6,33.5Z" fill="#3f3f3f"></path><path d="M8.061,29.471a.5.5,0,0,1-.268-.923l13.9-8.786L5.562,29.073a.5.5,0,0,1-.517-.856L21.121,18.056,5.28,27.2a.5.5,0,0,1-.518-.855l15-9.566L5.28,25.141a.5.5,0,0,1-.514-.858l6.7-4.181L5.28,23.675a.5.5,0,0,1-.524-.851l13.149-8.631L5.279,21.482a.5.5,0,0,1-.52-.853l7.583-4.884L5.279,19.822a.5.5,0,0,1-.521-.853l5.632-3.644L5.279,18.276a.5.5,0,0,1-.533-.845L13,11.746,5.279,16.2a.5.5,0,0,1-.53-.848l4.386-2.973L5.279,14.609a.5.5,0,0,1-.534-.845l3.006-2.073L5.279,13.118a.5.5,0,0,1-.533-.845l.758-.522-.225.13a.5.5,0,0,1-.572-.816l3.307-2.79L5.279,9.854A.5.5,0,0,1,4.7,9.042l1.043-.9-.467.27a.5.5,0,0,1-.713-.624l.669-1.625a.5.5,0,0,1-.37-.918L5.994,4.6a.5.5,0,0,1,.712.623l-.656,1.6L9.894,4.6a.5.5,0,0,1,.576.812l-1.044.9L12.385,4.6a.5.5,0,0,1,.572.815L9.65,8.2,15.9,4.6a.5.5,0,0,1,.533.844l-.76.524L18.039,4.6a.5.5,0,0,1,.534.844L15.567,7.514,20.621,4.6a.5.5,0,0,1,.53.847L16.767,8.417,23.384,4.6a.5.5,0,0,1,.533.845l-8.253,5.684L26.973,4.6a.5.5,0,0,1,.521.853L21.86,9.094l7.791-4.5a.5.5,0,0,1,.521.854l-7.585,4.885L32.527,4.6a.5.5,0,0,1,.525.851L19.9,14.077,36.325,4.6a.5.5,0,0,1,.515.858l-6.7,4.177L38.864,4.6a.5.5,0,0,1,.519.854l-15,9.567,17.832-10.3a.5.5,0,0,1,.517.856L26.653,15.742,42.72,6.466a.5.5,0,0,1,.517.856L29.347,16.1,42.72,8.383a.5.5,0,0,1,.522.852l-15.05,9.776L42.72,10.624a.5.5,0,0,1,.518.854l-8.926,5.691,8.409-4.855a.5.5,0,0,1,.528.849L31.328,21.169l11.393-6.577a.5.5,0,0,1,.518.854L40.55,17.161l2.171-1.253a.5.5,0,0,1,.533.845L35.44,22.115l7.281-4.2a.5.5,0,0,1,.53.847l-4.239,2.876,3.709-2.142a.5.5,0,0,1,.538.842L39.4,23.056l3.318-1.915a.5.5,0,0,1,.55.833l-3.152,2.358,2.6-1.5a.5.5,0,0,1,.558.826l-1.761,1.385,1.2-.694a.5.5,0,0,1,.641.744L41.669,27.22l1.052-.608a.5.5,0,0,1,.674.7l-.34.54a.485.485,0,0,1,.262.22.5.5,0,0,1-.182.683l-1.123.648a.5.5,0,0,1-.674-.7l.137-.218-1.587.917a.5.5,0,0,1-.642-.744L40.94,26.53,35.963,29.4a.5.5,0,0,1-.559-.826l1.762-1.386L33.335,29.4a.5.5,0,0,1-.55-.833l3.152-2.358L30.409,29.4a.5.5,0,0,1-.538-.841l3.857-2.723L27.554,29.4a.5.5,0,0,1-.531-.846l4.236-2.873L24.815,29.4a.5.5,0,0,1-.533-.845L32.1,23.2,21.345,29.4a.5.5,0,0,1-.519-.855l2.69-1.715L19.065,29.4a.5.5,0,0,1-.528-.848l11.921-8.007L15.121,29.4a.5.5,0,0,1-.518-.855l8.925-5.691L12.191,29.4a.5.5,0,0,1-.522-.853l15.046-9.773L8.311,29.4A.5.5,0,0,1,8.061,29.471Z" fill="#4f4f4f"></path><path d="M38.939,52.363a.5.5,0,0,1-.3-.9l6.15-4.614-8.414,4.857a.5.5,0,0,1-.542-.838l7.791-5.615L34.188,50.7a.5.5,0,0,1-.535-.844l7.936-5.505-9.009,5.2a.5.5,0,0,1-.528-.849l6.4-4.281-7.017,4.052a.5.5,0,0,1-.53-.848l7.578-5.1-8.1,4.677a.5.5,0,0,1-.532-.845l8.908-6.09L29.5,45.609a.5.5,0,0,1-.523-.851l4.3-2.8-4.268,2.464a.5.5,0,0,1-.535-.843l9.068-6.3L28.488,42.5a.5.5,0,0,1-.519-.854l.332-.212a.5.5,0,0,1-.461-.878l7.6-5.334L28.4,39.291a.5.5,0,0,1-.543-.838l6.7-4.854L28.88,36.871a.5.5,0,0,1-.535-.844l2.119-1.469-.85.49a.5.5,0,0,1-.578-.811l3.112-2.7a.5.5,0,0,1-.438-.25.5.5,0,0,1,.183-.683l4.017-2.32a.5.5,0,0,1,.578.811l-2.859,2.482,6.776-3.913a.5.5,0,0,1,.535.844l-2.121,1.472L42.4,27.913a.5.5,0,0,1,.543.838l-6.7,4.855,8.483-4.9a.5.5,0,0,1,.537.842l-7.593,5.33,8.9-5.137a.5.5,0,0,1,.52.854l-.213.136.526-.3a.5.5,0,0,1,.536.843l-9.07,6.3,9.949-5.743a.5.5,0,0,1,.524.852l-4.3,2.8,4.6-2.657a.5.5,0,0,1,.532.846l-8.9,6.086,9.248-5.339a.5.5,0,0,1,.529.848l-7.581,5.1,7.642-4.412a.5.5,0,0,1,.675.169.5.5,0,0,1-.146.68L45.227,41.1l6.282-3.626a.5.5,0,0,1,.535.843l-7.932,5.5,7.595-4.384a.5.5,0,0,1,.542.838l-7.792,5.615,7.036-4.062a.5.5,0,0,1,.55.833l-6.15,4.614,4.71-2.718a.5.5,0,0,1,.557.827L48.177,47.7l.588-.339a.5.5,0,0,1,.5.865l-6.85,3.956a.5.5,0,0,1-.558-.828l2.987-2.325L39.189,52.3A.491.491,0,0,1,38.939,52.363Z" fill="#6fcde2"></path><path d="M56.058,59.191a.5.5,0,0,1-.369-.838l.334-.364-.635.367a.5.5,0,0,1-.658-.722l.983-1.376-1.537.887a.5.5,0,0,1-.615-.775l.386-.412-.607.351a.5.5,0,0,1-.645-.74l.869-1.12-1.321.763a.5.5,0,0,1-.637-.75l.77-.938-1.1.635a.5.5,0,0,1-.7-.658l.814-1.612-.2.115a.5.5,0,0,1-.5-.865l1.652-.953a.5.5,0,0,1,.7.658l-.813,1.612,2.028-1.17a.5.5,0,0,1,.637.75l-.769.937,1.153-.666a.5.5,0,0,1,.645.739l-.869,1.12,1.321-.763a.5.5,0,0,1,.615.775l-.386.412.607-.351a.5.5,0,0,1,.657.723l-.982,1.377,1.471-.849a.5.5,0,0,1,.618.772l-.334.362.079-.045a.5.5,0,0,1,.5.865l-2.909,1.68A.491.491,0,0,1,56.058,59.191Z" fill="#4f4f4f"></path><path d="M13.151,29.484a.5.5,0,0,1-.4-.794l1.459-2.007L10.28,28.949a.5.5,0,0,1-.562-.824l.775-.619-.213.123a.5.5,0,0,1-.575-.812L11.587,25.2l-1.308.755a.5.5,0,0,1-.569-.818l1.411-1.171-.842.486a.5.5,0,0,1-.57-.817L11.2,22.393l-.921.532a.5.5,0,0,1-.586-.8l2.482-2.25-1.9,1.1a.5.5,0,0,1-.577-.812l1.946-1.68-1.369.791a.5.5,0,0,1-.58-.808l2.173-1.915-1.593.92a.5.5,0,0,1-.605-.785L12,14.323l-1.724,1a.5.5,0,0,1-.71-.629l.646-1.519a.507.507,0,0,1-.533-.24.5.5,0,0,1,.182-.683l1.128-.651a.5.5,0,0,1,.71.628l-.628,1.48L14.728,11.6a.5.5,0,0,1,.605.784L13,14.734l2.718-1.568a.5.5,0,0,1,.58.808l-2.172,1.914,1.6-.922a.5.5,0,0,1,.577.811l-1.947,1.681,1.373-.792a.5.5,0,0,1,.585.8l-2.481,2.25,1.9-1.1a.5.5,0,0,1,.571.817l-1.493,1.246.925-.535a.5.5,0,0,1,.57.818l-1.41,1.17.843-.487a.5.5,0,0,1,.575.812l-1.878,1.614,1.306-.755a.5.5,0,0,1,.563.824l-.779.621.219-.126a.5.5,0,0,1,.654.727l-1.458,2.007.808-.467a.5.5,0,0,1,.728.58l-.233.757a.491.491,0,0,1,.19.186.5.5,0,0,1-.183.683l-.5.291a.5.5,0,0,1-.727-.579l.127-.416L13.4,29.417A.5.5,0,0,1,13.151,29.484Z" fill="#59b297"></path><path d="M21.205,29.5a.5.5,0,0,1-.31-.892l.4-.319-.018.01a.5.5,0,0,1-.563-.822l.88-.707-.317.183a.5.5,0,0,1-.563-.823l.954-.77-.391.226a.5.5,0,0,1-.589-.8l2.653-2.448-2.065,1.192a.5.5,0,0,1-.572-.815l1.62-1.364-1.048.605a.5.5,0,0,1-.589-.8L23.349,18.7l-2.07,1.2a.5.5,0,0,1-.584-.8l2.391-2.148-1.807,1.043a.5.5,0,0,1-.59-.8l2.665-2.465-2.075,1.2a.5.5,0,0,1-.565-.821l1-.81-.432.249a.5.5,0,0,1-.567-.819l.411-.339a.508.508,0,0,1-.425-.117.5.5,0,0,1-.129-.57l.645-1.517a.5.5,0,0,1-.35-.923L21.992,9.6a.5.5,0,0,1,.581.058.5.5,0,0,1,.129.571L22.074,11.7,25.723,9.6a.5.5,0,0,1,.567.819l-.285.235.638-.368a.5.5,0,0,1,.565.821l-1,.809.51-.294a.5.5,0,0,1,.59.8l-2.666,2.465,2.08-1.2a.5.5,0,0,1,.584.8l-2.39,2.148,1.809-1.045a.5.5,0,0,1,.588.8l-2.658,2.456,2.072-1.2a.5.5,0,0,1,.573.816l-1.621,1.365,1.051-.608a.5.5,0,0,1,.589.8l-2.652,2.448,2.067-1.194a.5.5,0,0,1,.564.822l-.952.769.39-.226a.5.5,0,0,1,.564.823l-.878.705.316-.183a.5.5,0,0,1,.561.825l-.465.368a.5.5,0,0,1,.512.827l-.674.68.071-.042a.5.5,0,0,1,.733.561l-.269,1.02a.5.5,0,0,1,.039.887l-.5.291a.5.5,0,0,1-.733-.561l.193-.73L23.945,29.42a.5.5,0,0,1-.605-.785l.674-.68-2.559,1.477A.491.491,0,0,1,21.205,29.5Z" fill="#25a3da"></path><path d="M34.184,29.489a.5.5,0,0,1-.339-.867l.511-.473-2.076,1.2a.5.5,0,0,1-.559-.826l.554-.438a.5.5,0,0,1-.592-.8L34.7,24.372l-2.425,1.4a.5.5,0,0,1-.6-.793L34.676,22.1l-2.4,1.384a.5.5,0,0,1-.584-.8l2.385-2.143-1.8,1.04a.5.5,0,0,1-.585-.8l2.385-2.153-1.8,1.039a.5.5,0,0,1-.627-.762l1.684-1.93-1.057.61a.5.5,0,0,1-.683-.682l.415-.722a.494.494,0,0,1-.328-.238.5.5,0,0,1,.182-.683l1.129-.652a.5.5,0,0,1,.684.682l-.287.5L35.437,14.6a.5.5,0,0,1,.627.762l-1.683,1.93,3.29-1.9a.5.5,0,0,1,.585.8l-2.384,2.153,1.852-1.069a.5.5,0,0,1,.584.8l-2.386,2.143,1.807-1.043a.5.5,0,0,1,.6.794l-2.993,2.88,2.4-1.387a.5.5,0,0,1,.6.793l-3.02,2.915,2.428-1.4a.5.5,0,0,1,.56.826l-.558.44h0a.5.5,0,0,1,.589.8l-.527.487a.5.5,0,0,1,.677.58L38.169,28.2a.5.5,0,0,1,.08.9l-.532.307a.5.5,0,0,1-.737-.551l.254-1.05-2.8,1.617A.491.491,0,0,1,34.184,29.489Z" fill="#6fcde2"></path><path d="M.276,37.8a3.361,3.361,0,0,0,3.583,3.532c1.925.026,3.852,0,5.777,0h7.618a7.48,7.48,0,0,1-.093,1.024,4.09,4.09,0,0,1-.251.936c-.054.138-.113.274-.179.406-.037.074-.077.146-.117.218l-.029.048c-.007.013-.021.035-.037.058a5.017,5.017,0,0,1-.478.579c-.018.017-.036.036-.048.046-.05.044-.1.087-.152.128-.09.071-.184.136-.279.2l-.006.005-.006,0-.139.079c-.095.05-.192.1-.29.14-.038.017-.076.032-.114.048-.081.026-.161.054-.243.078-.135.038-.273.061-.409.093l-.05.007c-.048.006-.1.011-.144.014s-.088.007-.132.007a.934.934,0,0,0-.541.2c-.982.013-1.966.019-2.947.046a4.124,4.124,0,0,0-2.242.616,2.173,2.173,0,0,0-.488,3.268H1.279a1.139,1.139,0,0,0-.955.4c-.163.289.139.441.4.441h9a1.63,1.63,0,0,0,.569-.106c.218,0,.434-.009.643-.009H32.8A12.964,12.964,0,0,0,42.6,52.021a13.113,13.113,0,0,0,5.674-2.808l1.9,1.9.242.241a2.088,2.088,0,0,0-.481.89,2.258,2.258,0,0,0,.763,2.206l1.566,1.566,2.076,2.076c.179.179.357.36.538.538a2.389,2.389,0,0,0,1.658.664c1.461-.042,3.24-.838,3.195-2.539a2.65,2.65,0,0,0-1.018-1.8l-3.528-3.529a3.136,3.136,0,0,0-1.627-1.079,3.7,3.7,0,0,0-2.023.243L49.5,48.559l-.265-.264a12.047,12.047,0,0,0-1.514-18.247V16.931c0-4.358.208-8.772,0-13.125C47.608,1.37,45.569.671,43.517.671H5.293c-1.749,0-3.63.24-4.6,1.929C.05,3.715.276,5.336.276,6.575.276,16.982.188,27.392.276,37.8ZM52.12,50.874a.046.046,0,0,0,.02,0,1.956,1.956,0,0,1,.323.042,1.854,1.854,0,0,1,.813.457c.083.078.162.161.243.241l3.043,3.043c.383.384.777.758,1.151,1.151a1.989,1.989,0,0,1,.562,1.381,1.87,1.87,0,0,1-.269.954,1.648,1.648,0,0,1-.339.41.987.987,0,0,1-.2.143l-.007.005a2.321,2.321,0,0,1-1.551-.9l-1.465-1.464c-.86-.861-1.75-1.7-2.585-2.586a1.9,1.9,0,0,1-.116-2.509.436.436,0,0,0,.151-.164,1.96,1.96,0,0,1,.2-.192A.067.067,0,0,0,52.12,50.874ZM7.13,40.671c-1.823,0-4.2.42-5.139-1.625-.482-1.051-.267-2.568-.267-3.69V33.509H29.27a12.192,12.192,0,0,0-1.4,2.982h-6.8c-.3,0-.764.235-.8.57-.043.374.391.448.662.448H27.6a12.44,12.44,0,0,0-.276,3.162H18.632a.65.65,0,0,0-.574-.225,1.2,1.2,0,0,0-.565.225H7.13Zm11.059,3.077a6.479,6.479,0,0,0,.53-2.419h8.636a12.007,12.007,0,0,0,1.266,4.358c-4-.014-8-.071-12-.065A4.747,4.747,0,0,0,18.189,43.748ZM14.355,49.7c-1.169,0-2.349.047-3.517,0-.077,0-.15-.01-.224-.015a.592.592,0,0,0-.335-.1H10a1.66,1.66,0,0,1-.613-.317c-.878-.723-.923-2.69.345-2.957a18.557,18.557,0,0,1,3.543,0h.055a.75.75,0,0,0,.613.249,4.245,4.245,0,0,0,1.329-.249H28.96c.111.19.22.381.343.566A12.007,12.007,0,0,0,31.935,49.7Zm36.921-9.5a11.658,11.658,0,0,1-7.6,10.915,11.457,11.457,0,0,1-12.612-4.185,11.993,11.993,0,0,1-1.985-9.916c.007-.024.026-.044.029-.069,0-.01,0-.015,0-.025a11.608,11.608,0,0,1,1.146-2.9c.126-.224.264-.438.4-.65a.61.61,0,0,0,.268-.385,11.118,11.118,0,0,1,4.2-3.537,1.243,1.243,0,0,0,.375-.179,10.66,10.66,0,0,1,6.748-.6.642.642,0,0,0,.6.157A11.987,11.987,0,0,1,51.276,40.194ZM35.454,28.524h-2.73V16.2c0-.1-.006-.2,0-.3.011-.155.119-.348.115-.47a.757.757,0,0,0,0-.105c.025,0,.052.005.066.005h2.913c.514,0,1.027-.126,1.328.4a4.566,4.566,0,0,1,.127,1.988v10.3a13.849,13.849,0,0,0-1.731.521A.737.737,0,0,0,35.454,28.524Zm-13.723,0v-16.8c0-.257-.013-.517,0-.774.021-.4-.03-.365.227-.451a4.327,4.327,0,0,1,1.137,0,19.827,19.827,0,0,1,2.474,0c.52.067.661.366.7.823.092,1.1,0,2.24,0,3.339V28.524Zm6-17.384c-.034-1.755-1.6-1.634-2.916-1.634-1.419,0-4.333-.494-4.546,1.561a25.263,25.263,0,0,0,0,2.567v14.89h-3.54c.007-5.159.137-10.335,0-15.491-.045-1.688-1.742-1.48-2.959-1.48-1.3,0-3.909-.446-4.431,1.192a8.5,8.5,0,0,0-.064,2.406V28.524H6.864c-1.019,0-1.134-.57-1.134-1.486V7.228c0-.417-.005-.835,0-1.252.007-.654-.06-.409.354-.5a18.551,18.551,0,0,1,3.688,0H38.1a19.724,19.724,0,0,1,3.385,0c1.02.188.782,1.192.782,2.022V27.283c0,.18,0,.35-.006.52a13.28,13.28,0,0,0-3.54-.038V17.428a4.92,4.92,0,0,0-.137-2.126c-.327-.59-.969-.632-1.567-.632H34.956c-1.139,0-3.224-.256-3.634,1.182a7.653,7.653,0,0,0-.046,1.972v10.7H27.733C27.738,22.732,27.845,16.93,27.731,11.14ZM11.073,12.447a9.473,9.473,0,0,1,1.079,0c.751,0,1.531-.062,2.279,0a.792.792,0,0,1,.842.78c.089.94,0,1.934,0,2.878V28.524H10.727V13.484c0-.188,0-.376,0-.564C10.732,12.411,10.673,12.493,11.073,12.447ZM1.724,10.286V4.636c0-1.555.36-3.184,2.262-3.307,3.893-.251,7.885,0,11.784,0H33.986c3.2,0,6.52-.265,9.708,0,2.687.223,2.582,2.8,2.582,4.764V29.13a11.937,11.937,0,0,0-2.294-.954c-.1-.029-.2-.049-.3-.076a23.241,23.241,0,0,0,.048-3.608V9.181A17.161,17.161,0,0,0,43.7,5.648c-.294-1.32-1.745-1.124-2.77-1.124H7.4c-1.115,0-2.683-.127-3.081,1.232a14.179,14.179,0,0,0-.051,3.66v15.4a22.5,22.5,0,0,0,.006,3.375c.241,1.543,1.909,1.282,3.059,1.282H20.656a1.05,1.05,0,0,0,.418,0h5.582a1.05,1.05,0,0,0,.418,0h6.489a12.751,12.751,0,0,0-3.348,2.75c-.073.086-.137.177-.208.265H1.724v-22.2Z" fill="#262626"></path><path d="M41.273,34.089l1.01-.4c.2-.078.584-.315.391-.565s-.742-.091-.957,0l-6.99,2.8-1.01.4c-.2.078-.584.315-.391.565s.742.091.957,0Z" fill="#262626"></path><path d="M44.718,37.717l-8.738,3.5-1.262.5c-.2.078-.585.313-.392.562s.743.089.956,0l8.738-3.5,1.262-.5c.2-.078.585-.313.392-.562S44.931,37.632,44.718,37.717Z" fill="#262626"></path><path d="M44.214,43.7,39.845,45.45l-.631.252c-.186.074-.6.341-.387.582s.717.111.959.014l4.369-1.748.631-.252c.186-.074.6-.341.387-.582S44.456,43.605,44.214,43.7Z" fill="#262626"></path></g></svg>