<svg xmlns="http://www.w3.org/2000/svg" viewBox="0 0 60 60">
    <g>
        <path xmlns="http://www.w3.org/2000/svg"
            d="m20.816 46.471a.5.5 0 0 1 -.283-.912l1.212-.832-2.906 1.673a.5.5 0 0 1 -.54-.84l5.484-3.909-8.227 4.749a.5.5 0 0 1 -.539-.84l8.37-5.917-11.334 6.546a.5.5 0 0 1 -.532-.844l10.02-6.861-10.612 6.126a.5.5 0 0 1 -.522-.851l6.217-4.048-5.743 3.315a.5.5 0 0 1 -.516-.855l.445-.281a.5.5 0 0 1 -.448-.89l3.777-2.421-3.259 1.881a.5.5 0 0 1 -.523-.852l6.767-4.423-6.244 3.6a.5.5 0 0 1 -.524-.851l6.527-4.284-6 3.466a.5.5 0 0 1 -.535-.843l8.471-5.9-7.936 4.581a.5.5 0 0 1 -.537-.842l5.655-3.955-5.12 2.956a.5.5 0 0 1 -.539-.84l3.507-2.492-2.969 1.719a.5.5 0 0 1 -.562-.823l3.63-2.9-3.068 1.77a.5.5 0 0 1 -.577-.811l1.9-1.646-1.323.764a.5.5 0 0 1 -.684-.681l1.005-1.773-.03.018a.5.5 0 0 1 -.5-.867l1.627-.938a.5.5 0 0 1 .6.078.5.5 0 0 1 .082.6l-1.007 1.766 4.268-2.457a.5.5 0 0 1 .577.81l-1.9 1.648 4.256-2.458a.5.5 0 0 1 .563.823l-3.631 2.9 6.455-3.723a.5.5 0 0 1 .539.84l-3.511 2.494 5.776-3.334a.5.5 0 0 1 .537.841l-5.658 3.959 8.328-4.8a.5.5 0 0 1 .535.842l-8.472 5.9 10.892-6.288a.5.5 0 0 1 .524.85l-6.533 4.289 6.73-3.886a.5.5 0 0 1 .524.851l-6.765 4.422 6.314-3.65a.5.5 0 0 1 .519.853l-3.769 2.417 3.25-1.876a.5.5 0 0 1 .516.856l-.447.282a.5.5 0 0 1 .454.885l-6.224 4.053 5.7-3.292a.5.5 0 0 1 .532.845l-10.012 6.854 9.482-5.474a.5.5 0 0 1 .539.841l-8.374 5.919 7.835-4.523a.5.5 0 0 1 .54.84l-5.485 3.909 4.945-2.853a.5.5 0 0 1 .533.845l-1.21.831.677-.391a.5.5 0 0 1 .54.84l-.955.68.415-.24a.5.5 0 0 1 .565.822l-1.886 1.529 1.321-.762a.5.5 0 0 1 .636.749l-1.471 1.8.795-.459a.5.5 0 0 1 .5.865l-3.165 1.825a.5.5 0 0 1 -.637-.749l1.472-1.8-4.416 2.549a.5.5 0 0 1 -.566-.821l1.884-1.528-4.069 2.349a.5.5 0 0 1 -.54-.84l.96-.682-2.639 1.522a.5.5 0 0 1 -.25.071z"
            fill="#ce9a5d" data-original="#ce9a5d" class=""></path>
        <path xmlns="http://www.w3.org/2000/svg"
            d="m27.214 46.053a.5.5 0 0 1 -.33-.876l1.945-1.706-1.549.893a.5.5 0 0 1 -.573-.813l1.72-1.461-1.147.662a.5.5 0 0 1 -.591-.8l2.485-2.309-1.894 1.093a.5.5 0 0 1 -.605-.784l.639-.647-.034.019a.5.5 0 0 1 -.732-.563l.267-.991a.5.5 0 0 1 -.035-.884l.5-.291a.5.5 0 0 1 .733.563l-.188.7 2.2-1.272a.5.5 0 0 1 .606.784l-.631.643 2.5-1.445a.5.5 0 0 1 .591.8l-2.486 2.311 2.116-1.221a.5.5 0 0 1 .573.814l-1.72 1.46 1.147-.662a.5.5 0 0 1 .58.809l-1.946 1.706 1.367-.788a.5.5 0 0 1 .667.708l-.936 1.419.269-.154a.5.5 0 0 1 .5.865l-2.1 1.212a.5.5 0 0 1 -.667-.708l.935-1.419-3.926 2.266a.49.49 0 0 1 -.25.067z"
            fill="#f2c497" data-original="#f2c497"></path>
        <g xmlns="http://www.w3.org/2000/svg" fill="#262626">
            <path
                d="m18.583 24.593c-1.883-.037-3.767-.028-5.652-.016a1.168 1.168 0 0 0 -.19-.024h-6a1.531 1.531 0 0 0 -.227.021c-1.866-.015-3.732-.026-5.6.019-1.565.037-3.1.842-3.188 2.56-.043.836 0 1.685 0 2.521v14.99a2.388 2.388 0 0 0 2.429 2.643c5.786.185 11.606 0 17.4 0h.6c1.671-.122 2.994-1.031 3.02-2.8.017-1.128 0-2.258 0-3.386v-11.259c0-1 .048-2.005 0-3a2.359 2.359 0 0 0 -2.592-2.269zm-6.852 8.013c0 .164.012.334 0 .5a.884.884 0 0 1 -.068.3c-.014.032-.038.065-.056.1l-.113-.059c-.3-.2-.594-.419-.905-.6a2.2 2.2 0 0 0 -2.287.244l-.585.39-.078.048a1.622 1.622 0 0 1 -.146-.086.981.981 0 0 1 -.314-.862c-.013-1.924 0-3.85 0-5.775v-1.456h4.552zm-2.411.8c.01-.033.087 0 0 0zm10.411 11.491c-.012.623-.18 1.637-.98 1.7h-16.413c-.877 0-1.938.185-2.617-.5-.694-.7-.542-1.77-.542-2.672v-9.631c0-2.316-.169-4.7 0-7.015.111-1.506 1.042-1.472 2.136-1.472h4.416v7.529a1.71 1.71 0 0 0 .089.724 1.627 1.627 0 0 0 1.987.7 2.97 2.97 0 0 0 .859-.42 3.81 3.81 0 0 0 .615-.395.509.509 0 0 1 .082.038c.08.058.165.109.246.164l.617.411a.441.441 0 0 0 .059.026c.016.012.017.026.036.037 1.046.62 2.837-.065 2.858-1.371.007-.415 0-.831 0-1.247v-6.2h2.45c.809 0 1.668-.082 2.474 0 1.391.142 1.628 1.357 1.628 2.484 0 5.703.105 11.412 0 17.11z"
                fill="#262626" data-original="#262626" class=""></path>
            <path
                d="m23.447 52.621a1.214 1.214 0 0 0 -.539.037 1.2 1.2 0 0 0 -.485.237l-.095.1a.233.233 0 0 0 -.052.2v2c0 .11.208.172.277.185a1.229 1.229 0 0 0 .539-.037 1.2 1.2 0 0 0 .485-.237l.095-.1a.233.233 0 0 0 .052-.2v-2c0-.106-.208-.172-.277-.185z"
                fill="#262626" data-original="#262626" class=""></path>
            <path
                d="m27.078 52.52a1.141 1.141 0 0 0 -.546.194c-.106.08-.262.209-.262.355v2a.337.337 0 0 0 .165.323.808.808 0 0 0 .487.088 1.141 1.141 0 0 0 .546-.194c.106-.08.262-.209.262-.355v-2a.337.337 0 0 0 -.165-.323.808.808 0 0 0 -.487-.088z"
                fill="#262626" data-original="#262626" class=""></path>
        </g>
    </g>
</svg>