<svg xmlns="http://www.w3.org/2000/svg" viewBox="0 0 60 60"><g><g fill="#262626"><path d="m48.506 37.333c2.4-.042 4.2-1.485 4.218-3.937.016-2 0-4.005 0-6.008v-19.216c0-1.445.072-2.911 0-4.355-.124-2.512-2.237-3.15-4.324-3.15h-34a33.8 33.8 0 0 0 -3.516.027 3.809 3.809 0 0 0 -3.591 3.173 13.117 13.117 0 0 0 -.017 1.345v25.894c0 1.477-.332 3.59.577 4.861 1.361 1.9 4.408 1.366 6.443 1.366h10.98v5.2c-1.635-.009-3.271-.018-4.9.009a4.091 4.091 0 0 0 -3.786 2.174 7.311 7.311 0 0 0 -.314 3.111c0 2.74-.117 5.508 0 8.246a3.448 3.448 0 0 0 3.462 3.375c.636.029 1.281 0 1.918 0h18.074a.727.727 0 0 0 .075-.012.908.908 0 0 0 .109.007 3.831 3.831 0 0 0 3.814-3.534c.053-1.046 0-2.109 0-3.156v-5.077a6.867 6.867 0 0 0 -.413-3.384c-1.212-2.167-3.9-1.745-5.984-1.745h-2.607v-5.211c4.593.01 9.191.076 13.782-.003zm-39.782-33.396a2.419 2.419 0 0 1 2.039-2.6c.393-.04.811 0 1.205 0h32.873c1.249 0 2.532-.086 3.779 0 2.409.166 2.656 2.276 2.656 4.137v3.007h-42.554c-.005-1.512-.055-3.034.002-4.544zm3.292 32.73a2.959 2.959 0 0 1 -3.139-1.912 5 5 0 0 1 -.153-1.611v-23.625h42.552v12.274c0 4.113.215 8.29 0 12.4a2.462 2.462 0 0 1 -2.646 2.476h-13.906v-10.369h.98a1.361 1.361 0 0 0 .344-.025c.946-.168 2.1-.77 1.5-1.9a8.6 8.6 0 0 0 -.752-1l-3.781-5.042c-.636-.848-1.467-2.625-2.685-2.62-1.455.006-2.118 1.326-2.881 2.344l-3.849 5.119c-.6.806-2.413 2.794-.315 3.118a14.849 14.849 0 0 1 2.081-.046c-.213-.012-.094.579-.094.8v9.616zm27.459 6.786c3.466.091 2.8 4 2.8 6.386v5.034c0 1.588-.072 3.542-2.158 3.674h-14.212c-1.85 0-3.72.077-5.569 0-3.291-.137-2.608-4.156-2.608-6.386v-4.58a6.09 6.09 0 0 1 .363-3.055c.979-1.664 4.039-1.073 5.648-1.073 5.239 0 10.498-.136 15.736 0zm-12.165-.906h-.586v-16.741c0-.087-.22-.108-.256-.108-.613 0-1.966.271-2.47-.129-.694-.551.061-1.342.412-1.81l3.674-4.9 1.6-2.132c.024-.032.159-.254.261-.385a1.07 1.07 0 0 0 .109.366 8.5 8.5 0 0 0 1.311 1.749l2.013 2.684 2.016 2.688c.073.1 1.294 1.691.943 1.869h-1.869c-.268 0-1.192.1-1.192.5v16.349z" fill="#262626" data-original="#262626" class=""></path><path d="m21.514 50.651a.473.473 0 0 0 -.069.778l2.626 1.751.374.249a.921.921 0 0 0 1.041-.08c.231-.194.383-.569.069-.778l-2.455-1.634 2.012-1.337.374-.249a.476.476 0 0 0 .069-.778.936.936 0 0 0 -1.041.08l-2.626 1.747z" fill="#262626" data-original="#262626" class=""></path><path d="m34.55 52.784c-.192.129-.433.411-.126.567a1.17 1.17 0 0 0 1.026-.135l2.626-1.751.374-.249c.218-.146.409-.378.126-.567l-2.626-1.749-.374-.249c-.392-.262-1.73.317-1.152.7l2.626 1.749.012.008-2.138 1.425z" fill="#262626" data-original="#262626" class=""></path><path d="m28.875 54.3c.229-.037.752-.152.842-.422l1.752-5.255.248-.745c.09-.269-.471-.2-.592-.186-.229.037-.752.152-.842.422l-1.752 5.255-.248.745c-.09.273.471.209.592.186z" fill="#262626" data-original="#262626" class=""></path><path d="m11.577 5.47a.891.891 0 0 0 .352.035h1a.849.849 0 0 0 .291-.069.79.79 0 0 0 .254-.128.52.52 0 0 0 .171-.175.369.369 0 0 0 .087-.2.359.359 0 0 0 -.17-.343l-.139-.065a.891.891 0 0 0 -.352-.035h-1a.849.849 0 0 0 -.291.069.79.79 0 0 0 -.254.128.52.52 0 0 0 -.171.175.369.369 0 0 0 -.087.2.359.359 0 0 0 .17.343z" fill="#262626" data-original="#262626" class=""></path><path d="m16.413 5.311a.843.843 0 0 0 .287.032h1a1.3 1.3 0 0 0 .278-.039 1.435 1.435 0 0 0 .288-.082 1.018 1.018 0 0 0 .233-.117.589.589 0 0 0 .165-.13c.052-.07.1-.166.014-.238l-.091-.048a.843.843 0 0 0 -.287-.032h-1a1.3 1.3 0 0 0 -.278.039 1.435 1.435 0 0 0 -.288.082 1.018 1.018 0 0 0 -.233.117.6.6 0 0 0 -.165.129c-.052.071-.1.167-.014.239z" fill="#262626" data-original="#262626" class=""></path><path d="m21.735 5.472h1a.841.841 0 0 0 .283-.021.948.948 0 0 0 .287-.085.721.721 0 0 0 .225-.144.516.516 0 0 0 .154-.171.308.308 0 0 0 -.016-.353.565.565 0 0 0 -.4-.17h-1a.841.841 0 0 0 -.283.021.948.948 0 0 0 -.287.085.721.721 0 0 0 -.225.144.516.516 0 0 0 -.154.171.308.308 0 0 0 .016.353.565.565 0 0 0 .4.17z" fill="#262626" data-original="#262626" class=""></path><path d="m43.944 5.56h4a.808.808 0 0 0 .792-.607c.035-.385-.376-.513-.68-.513h-4a.808.808 0 0 0 -.792.607c-.035.385.376.513.68.513z" fill="#262626" data-original="#262626" class=""></path></g></g></svg>
