<svg xmlns="http://www.w3.org/2000/svg" viewBox="0 0 60 60"><g><path d="m15.669 37.471a.5.5 0 0 1 -.269-.922l16.512-10.495-19.66 11.346a.5.5 0 0 1 -.516-.856l16.378-10.254-18.402 10.624a.5.5 0 0 1 -.517-.855l21.073-13.3-21.804 12.587a.5.5 0 0 1 -.511-.86l8.22-5.016-7.893 4.556a.5.5 0 0 1 -.513-.857l14.381-8.922-13.869 8.007a.5.5 0 0 1 -.518-.855l18.139-11.562-17.622 10.173a.5.5 0 0 1 -.516-.856l11.945-7.514-11.43 6.6a.5.5 0 0 1 -.519-.853l12.542-8.031-12.023 6.944a.5.5 0 0 1 -.516-.856l6.378-4.018-5.863 3.381a.5.5 0 0 1 -.521-.853l8.462-5.465-7.941 4.584a.5.5 0 0 1 -.53-.846l10.115-6.861-9.586 5.534a.5.5 0 0 1 -.537-.841l8.436-5.915-7.9 4.56a.5.5 0 0 1 -.534-.844l4.779-3.308-4.246 2.448a.5.5 0 0 1 -.535-.843l2.545-1.771-2.01 1.16a.5.5 0 0 1 -.567-.819l3.923-3.22-3.357 1.939a.5.5 0 0 1 -.607-.782l2.328-2.378-1.722.993a.493.493 0 0 1 -.6-.072.5.5 0 0 1 -.095-.6l.74-1.4a.5.5 0 0 1 -.241-.934l1.188-.673a.5.5 0 0 1 .691.668l-.678 1.28 3.376-1.948a.5.5 0 0 1 .608.782l-2.327 2.378 5.474-3.16a.5.5 0 0 1 .568.819l-3.923 3.22 7-4.04a.5.5 0 0 1 .535.843l-2.548 1.773 4.53-2.615a.5.5 0 0 1 .535.843l-4.776 3.307 7.192-4.156a.5.5 0 0 1 .671.164.5.5 0 0 1 -.134.678l-8.436 5.915 11.705-6.758a.5.5 0 0 1 .53.846l-10.114 6.861 13.35-7.707a.5.5 0 0 1 .521.852l-8.47 5.471 10.957-6.324a.5.5 0 0 1 .516.855l-6.373 4.013 8.434-4.869a.5.5 0 0 1 .519.853l-12.545 8.032 15.391-8.885a.5.5 0 0 1 .517.855l-11.941 7.512 14.494-8.368a.5.5 0 0 1 .519.854l-18.131 11.556 21.5-12.411a.5.5 0 0 1 .514.857l-14.382 8.923 16.093-9.291a.5.5 0 0 1 .51.86l-8.223 5.018 8.208-4.738a.5.5 0 0 1 .516.855l-21.073 13.3 20.557-11.866a.5.5 0 0 1 .515.856l-16.381 10.26 15.866-9.16a.5.5 0 0 1 .518.854l-16.5 10.491 15.982-9.229a.5.5 0 0 1 .514.857l-8.684 5.417 8.17-4.717a.5.5 0 0 1 .524.85l-14.77 9.675 14.247-8.224a.5.5 0 0 1 .523.85l-11.126 7.279 10.6-6.121a.5.5 0 0 1 .515.857l-.518.324a.5.5 0 0 1 .525.85l-7.164 4.731 6.639-3.833a.5.5 0 0 1 .527.849l-5.262 3.507 4.741-2.736a.5.5 0 0 1 .539.841l-6.149 4.365 5.61-3.238a.5.5 0 0 1 .528.848l-.47.315a.5.5 0 0 1 .5.853l-4.041 3.222 3.483-2.01a.5.5 0 0 1 .584.8l-2.391 2.147 1.807-1.037a.5.5 0 0 1 .6.791l-.694.673a.5.5 0 0 1 .386.915l-3.336 1.921a.5.5 0 0 1 -.6-.791l.651-.631-2.463 1.422a.5.5 0 0 1 -.584-.8l2.39-2.147-5.112 2.947a.5.5 0 0 1 -.562-.823l4.042-3.224-7.009 4.047a.5.5 0 0 1 -.529-.847l.419-.282-1.956 1.129a.5.5 0 0 1 -.539-.84l6.148-4.36-9.015 5.2a.5.5 0 0 1 -.527-.848l5.269-3.506-7.55 4.354a.5.5 0 0 1 -.525-.849l7.167-4.733-9.67 5.582a.5.5 0 0 1 -.516-.856l.515-.322-2.042 1.178a.5.5 0 0 1 -.523-.85l11.127-7.28-14.083 8.13a.5.5 0 0 1 -.525-.85l14.768-9.674-18.229 10.524a.5.5 0 0 1 -.514-.856l8.676-5.412-10.857 6.268a.5.5 0 0 1 -.25.071z" fill="#d6dbe3" data-original="#d6dbe3" class=""></path><path d="m8.647 9.5a.5.5 0 0 1 -.3-.9l4.353-3.348-4.42 2.553a.5.5 0 0 1 -.539-.841l.376-.264a.5.5 0 0 1 -.432-.854l2.4-2.281-1.806 1.035a.5.5 0 0 1 -.632-.755l.953-1.126a.5.5 0 0 1 -.355-.244.5.5 0 0 1 .183-.683l1.933-1.116a.5.5 0 0 1 .632.755l-.74.878 2.965-1.709a.5.5 0 0 1 .594.8l-2.4 2.282 5.333-3.082a.5.5 0 0 1 .539.84l-.105.075 1.586-.915a.5.5 0 0 1 .554.829l-4.359 3.349 7.24-4.178a.5.5 0 0 1 .54.84l-2.63 1.871 4.702-2.711a.5.5 0 0 1 .54.84l-2.652 1.889 4.729-2.729a.5.5 0 0 1 .546.835l-3.545 2.604 5.963-3.439a.5.5 0 0 1 .557.826l-4.571 3.574 7.627-4.4a.5.5 0 0 1 .667.156.5.5 0 0 1 -.115.676l-4.072 3.068 6.766-3.9a.5.5 0 0 1 .549.833l-3.875 2.9 6.459-3.733a.5.5 0 0 1 .564.821l-4.863 3.923 8.224-4.744a.5.5 0 0 1 .555.828l-4.414 3.41 7.349-4.238a.5.5 0 0 1 .553.831l-4.159 3.152 6.077-3.508a.5.5 0 0 1 .542.838l-2.328 1.679 2.736-1.579a.5.5 0 0 1 .573.814l-3.468 2.94 3.4-1.96a.5.5 0 0 1 .6.786l-2.046 2.042 1.453-.835a.5.5 0 0 1 .683.683l-.651 1.117a.5.5 0 0 1 .479.877l-1.6.926a.5.5 0 0 1 -.683-.683l.65-1.119-3.131 1.805a.5.5 0 0 1 -.6-.786l2.047-2.044-4.909 2.832a.5.5 0 0 1 -.66-.144.5.5 0 0 1 .086-.67l3.466-2.938-6.5 3.755a.5.5 0 0 1 -.542-.838l2.332-1.683-4.371 2.522a.5.5 0 0 1 -.553-.831l4.153-3.153-6.907 3.987a.5.5 0 0 1 -.555-.828l4.416-3.414-7.353 4.244a.5.5 0 0 1 -.564-.821l4.862-3.925-8.228 4.749a.5.5 0 0 1 -.549-.833l3.876-2.9-6.462 3.735a.5.5 0 0 1 -.552-.832l4.072-3.074-6.77 3.908a.5.5 0 0 1 -.558-.826l4.569-3.575-7.626 4.404a.5.5 0 0 1 -.546-.835l3.546-2.609-5.969 3.446a.5.5 0 0 1 -.54-.84l2.655-1.889-4.735 2.731a.5.5 0 0 1 -.54-.84l2.634-1.876-4.705 2.718a.491.491 0 0 1 -.253.067z" fill="#346d92" data-original="#346d92" class=""></path><path d="m34.482 26.493a.5.5 0 0 1 -.25-.932l2.335-1.349a.5.5 0 1 1 .5.865l-2.335 1.349a.494.494 0 0 1 -.25.067z" fill="#59b297" data-original="#59b297"></path><path d="m26.871 44.5a.5.5 0 0 1 -.316-.888l2.3-1.877-2.579 1.489a.5.5 0 0 1 -.546-.836l.538-.394a.5.5 0 0 1 -.54-.839l.691-.508-.148.085a.5.5 0 0 1 -.571-.816l3.584-3.008-3.015 1.741a.5.5 0 0 1 -.578-.811l4-3.469-3.428 1.98a.5.5 0 0 1 -.569-.819l3.316-2.733-2.75 1.588a.5.5 0 0 1 -.577-.812l3.9-3.351-3.323 1.918a.5.5 0 0 1 -.533-.845l.381-.262a.507.507 0 0 1 -.512-.206.5.5 0 0 1 .1-.672l4.639-3.78-4.077 2.354a.5.5 0 0 1 -.563-.823l3.368-2.7-2.808 1.621a.5.5 0 0 1 -.55-.832l1.141-.856-2.2 1.267a.5.5 0 0 1 -.566-.82l3.492-2.842-4.15 2.4a.5.5 0 0 1 -.54-.84l1.63-1.158a.511.511 0 0 1 -.279-.205.5.5 0 0 1 .12-.676l1.6-1.194a.521.521 0 0 1 -.161-.129.5.5 0 0 1 .017-.65l2.879-3.21a.359.359 0 0 1 -.045-.065.5.5 0 0 1 .182-.683l1.175-.684a.5.5 0 0 1 .622.767l-1.975 2.2 2.618-1.511a.5.5 0 0 1 .549.833l-.03.023.085-.049a.5.5 0 0 1 .54.84l-.3.215.386-.223a.5.5 0 0 1 .566.82l-3.492 2.841 3.959-2.285a.5.5 0 0 1 .55.832l-1.136.854 1.292-.746a.5.5 0 0 1 .562.823l-3.371 2.7 3.807-2.2a.5.5 0 0 1 .565.82l-4.638 3.779 5.249-3.03a.5.5 0 0 1 .534.845l-2.718 1.867a.515.515 0 0 1 .161.145.5.5 0 0 1 -.082.668l-3.9 3.352 3.328-1.921a.5.5 0 0 1 .568.818l-3.315 2.734 2.75-1.588a.5.5 0 0 1 .577.81l-4 3.469 3.428-1.979a.5.5 0 0 1 .561.827l-3.585 3.01 3.017-1.742a.5.5 0 0 1 .546.835l-.686.505.142-.082a.5.5 0 0 1 .546.836l-.537.394a.5.5 0 0 1 .56.824l-2.3 1.876 1.737-1a.5.5 0 0 1 .574.814l-.654.557.082-.047a.5.5 0 0 1 .632.755l-.52.616a.5.5 0 0 1 .391.913l-2.342 1.351a.5.5 0 0 1 -.632-.755l.493-.583-2.335 1.348a.5.5 0 0 1 -.575-.814l.655-.557-2.391 1.38a.491.491 0 0 1 -.247.066z" fill="#59b297" data-original="#59b297"></path><path d="m20.246 59.471a.5.5 0 0 1 -.281-.913l10.874-7.412-12.719 7.342a.5.5 0 0 1 -.526-.848l9.246-6.14-9.454 5.458a.5.5 0 0 1 -.535-.844l9.559-6.633-9.13 5.27a.5.5 0 0 1 -.522-.851l1.447-.941-.925.533a.5.5 0 0 1 -.55-.833l6.691-5.013-6.142 3.546a.5.5 0 0 1 -.554-.83l4.036-3.1-3.482 2.01a.5.5 0 0 1 -.581-.808l2.825-2.489-2.244 1.3a.5.5 0 0 1 -.661-.718l1.313-1.89a.5.5 0 1 1 -.5-.865l1.934-1.116a.5.5 0 0 1 .661.718l-1.311 1.888 4.65-2.692a.5.5 0 0 1 .581.807l-2.823 2.489 5.71-3.3a.5.5 0 0 1 .555.829l-4.036 3.1 6.808-3.925a.5.5 0 0 1 .55.833l-6.689 5.012 10.125-5.845a.5.5 0 0 1 .522.851l-1.45.943 3.108-1.794a.5.5 0 0 1 .535.843l-9.561 6.633 12.823-7.4a.5.5 0 0 1 .526.848l-9.249 6.143 10.531-6.079a.5.5 0 0 1 .531.846l-10.87 7.409 11.1-6.409a.5.5 0 0 1 .53.847l-7.49 5.046 6.987-4.033a.5.5 0 0 1 .53.847l-5.099 3.459 4.57-2.638a.5.5 0 0 1 .549.833l-6.04 4.513 5.492-3.171a.5.5 0 0 1 .545.836l-2.628 1.921 2.083-1.2a.5.5 0 0 1 .583.806l-2.933 2.619 2.35-1.355a.5.5 0 0 1 .633.754l-1.348 1.606.35-.2a.5.5 0 1 1 .5.865l-2.807 1.611a.5.5 0 0 1 -.633-.754l1.349-1.607-4.091 2.361a.5.5 0 0 1 -.583-.8l2.93-2.618-5.932 3.418a.5.5 0 0 1 -.545-.836l2.63-1.921-4.774 2.757a.5.5 0 0 1 -.549-.833l6.038-4.51-9.26 5.343a.5.5 0 0 1 -.53-.846l5.101-3.454-7.453 4.3a.5.5 0 0 1 -.529-.847l7.491-5.047-10.209 5.894a.5.5 0 0 1 -.254.071z" fill="#346d92" data-original="#346d92" class=""></path></g></svg>

