<svg xmlns="http://www.w3.org/2000/svg" viewBox="0 0 60 60"><g><path d="m20.816 46.471a.5.5 0 0 1 -.277-.916l8.161-5.438-9.8 5.66a.5.5 0 0 1 -.528-.847l11-7.378-11.086 6.4a.5.5 0 0 1 -.527-.848l11.016-7.344-10.495 6.054a.5.5 0 0 1 -.519-.853l5.52-3.533-5 2.886a.5.5 0 0 1 -.515-.856l.407-.255a.5.5 0 0 1 -.414-.9l4.925-3.193-4.4 2.541a.5.5 0 0 1 -.54-.839l8.533-6.063-7.997 4.615a.5.5 0 0 1 -.525-.849l1.136-.75-.611.351a.5.5 0 0 1 -.536-.843l2.956-2.068-2.42 1.4a.5.5 0 0 1 -.569-.818l4.09-3.4-3.521 2.029a.5.5 0 0 1 -.554-.829l.477-.366a.5.5 0 0 1 -.553-.8l1.291-1.509-.661.381a.5.5 0 0 1 -.732-.565l.264-.965a.491.491 0 0 1 -.214-.2.5.5 0 0 1 .182-.682l.5-.289a.5.5 0 0 1 .733.564l-.182.664 2.134-1.231a.5.5 0 0 1 .63.758l-1.29 1.507 3.932-2.27a.5.5 0 0 1 .555.829l-.439.337 2.024-1.168a.5.5 0 0 1 .569.817l-4.09 3.4 7.317-4.224a.5.5 0 0 1 .536.843l-2.951 2.064 5.042-2.904a.5.5 0 0 1 .525.85l-1.142.755 2.783-1.607a.5.5 0 0 1 .54.84l-8.534 6.064 11.967-6.909a.5.5 0 0 1 .523.853l-4.917 3.187 7-4.044a.5.5 0 0 1 .515.857l-.266.167a.5.5 0 0 1 .44.89l-5.508 3.526 4.989-2.88a.5.5 0 0 1 .527.849l-11.016 7.347 10.494-6.058a.5.5 0 0 1 .528.847l-10.995 7.377 10.468-6.043a.5.5 0 0 1 .527.849l-8.167 5.44 7.64-4.41a.5.5 0 0 1 .535.844l-7.656 5.309 7.125-4.114a.5.5 0 0 1 .535.843l-4.842 3.363 4.3-2.484a.5.5 0 0 1 .536.843l-2.52 1.757 1.984-1.145a.5.5 0 0 1 .567.818l-3.832 3.155 3.265-1.885a.5.5 0 0 1 .6.786l-2.218 2.227 1.62-.936a.5.5 0 0 1 .626.763l-.584.664a.507.507 0 0 1 .47.249.5.5 0 0 1 -.182.682l-2.318 1.336a.5.5 0 0 1 -.626-.762l.483-.549-2.272 1.311a.5.5 0 0 1 -.6-.786l2.223-2.226-5.222 3.012a.5.5 0 0 1 -.568-.818l3.832-3.154-6.882 3.972a.5.5 0 0 1 -.537-.842l2.523-1.758-4.5 2.6a.5.5 0 0 1 -.535-.842l4.834-3.358-7.285 4.2a.5.5 0 0 1 -.536-.843l7.662-5.31-10.66 6.153a.5.5 0 0 1 -.25.071z" fill="#ce9a5d" data-original="#ce9a5d"></path><path d="m31.811 33.384a.5.5 0 0 1 -.428-.76l.148-.244-.594.343a.493.493 0 0 1 -.613-.09.5.5 0 0 1 -.054-.617l1.13-1.716-4.06 2.342a.5.5 0 0 1 -.581-.808l2.156-1.906-1.635.943a.5.5 0 0 1 -.561-.824l.7-.554-.135.077a.5.5 0 0 1 -.637-.748l1.638-2.022-1 .58a.5.5 0 0 1 -.733-.56l.275-1.051a.487.487 0 0 1 -.224-.2.5.5 0 0 1 .182-.682l.5-.291a.5.5 0 0 1 .734.559l-.2.765 2.321-1.339a.5.5 0 0 1 .637.748l-1.642 2.018 3.587-2.071a.5.5 0 0 1 .561.825l-.7.555.138-.079a.5.5 0 0 1 .581.808l-2.156 1.905 1.575-.909a.5.5 0 0 1 .668.707l-1.127 1.717.46-.266a.5.5 0 0 1 .677.692l-.35.578a.5.5 0 0 1 .067.9l-1.055.609a.5.5 0 0 1 -.25.066z" fill="#f2c497" data-original="#f2c497"></path><g fill="#262626"><path d="m18.583 24.593q-2.583-3.011-5.161-6.022l-.757-.883c-.407-.475-1.788.09-1.33.624l5.243 6.117.7.814v17.716c0 1.034-.109 2.066.753 2.838a3.913 3.913 0 0 0 2.813.61h18.873a.632.632 0 0 0 .082-.013c.036 0 .06.006.1 0a2.831 2.831 0 0 0 2.824-2.936c.011-1.273 0-2.547 0-3.82v-14.758l5.177-6.04q.378-.441.757-.883c.208-.243-.184-.278-.35-.268a1.522 1.522 0 0 0 -.968.354l-5.239 6.117-.371.433zm22.693.814v16.126c0 1.046.434 3.868-1.124 4.06h-17.473a23.261 23.261 0 0 1 -2.362 0c-1.511-.158-1.593-1.46-1.593-2.617v-17.569h7.552v4.433 2.208c.007 1.359 1.543 1.552 2.546 1.046a6.386 6.386 0 0 0 .655-.414l.3-.2a.757.757 0 0 1 .149.061c.1.06.2.134.3.2l.54.361c.979.586 2.879.117 2.952-1.207.019-.359 0-.723 0-1.083v-5.4h7.552zm-9 0v6.35c0 .136.009.276 0 .412a.9.9 0 0 1 -.089.353.253.253 0 0 1 -.035.051l-.03-.013c-.3-.2-.589-.4-.891-.594a2.228 2.228 0 0 0 -2.38.2l-.517.345-.117.078c-.078-.04-.182-.095-.2-.109a.8.8 0 0 1 -.251-.383 1.333 1.333 0 0 1 -.043-.366c-.023-1.68 0-3.363 0-5.043v-1.281zm-3.976 7.225-.023-.01c.015-.001.023.002.023.01z" fill="#262626" data-original="#262626"></path><path d="m22.572 39.631a.845.845 0 0 0 -.483-.068 1.252 1.252 0 0 0 -.547.19c-.1.07-.269.192-.269.328v2a.282.282 0 0 0 .155.288.845.845 0 0 0 .483.068 1.252 1.252 0 0 0 .547-.19c.1-.07.269-.192.269-.328v-2a.282.282 0 0 0 -.155-.288z" fill="#262626" data-original="#262626"></path><path d="m26.573 39.637a.851.851 0 0 0 -.48-.061 1.28 1.28 0 0 0 -.548.188c-.1.067-.271.187-.271.32v2a.268.268 0 0 0 .153.279.851.851 0 0 0 .48.061 1.28 1.28 0 0 0 .548-.188c.1-.067.271-.187.271-.32v-2a.267.267 0 0 0 -.153-.279z" fill="#262626" data-original="#262626"></path><path d="m25.569 15.075c.072-.048.182-.168.155-.269s-.181-.143-.269-.155a1.541 1.541 0 0 0 -1.024.274l-2.631 1.751-.373.249c-.083.056-.25.247-.108.342l2.626 1.751.374.249a1.091 1.091 0 0 0 .947-.03c.1-.041.663-.334.407-.5l-2.626-1.751-.172-.114 2.325-1.548z" fill="#262626" data-original="#262626"></path><path d="m34.511 18.637a.494.494 0 0 0 -.064.8.928.928 0 0 0 1.042-.074l2.627-1.751.373-.249a.492.492 0 0 0 .064-.8l-2.626-1.751-.374-.249a.906.906 0 0 0 -1.042.074c-.232.2-.381.589-.064.8l2.431 1.62-1.994 1.33z" fill="#262626" data-original="#262626"></path><path d="m31.1 13.617c-.281.037-.725.173-.827.479l-1.752 5.256-.248.744c-.1.306.459.308.619.287.281-.037.725-.173.827-.479l1.752-5.256.248-.744c.106-.304-.455-.304-.619-.287z" fill="#262626" data-original="#262626"></path><path d="m2.738 25.194c-.019.1 1.367.035 1.449-.388 2.347-12.106 12.885-21.449 25.338-21.53a2.389 2.389 0 0 0 .62-.184l.051.051-1.864 1.865c-.245.244.207.368.376.363a1.4 1.4 0 0 0 .96-.379q1-1 2-2a.188.188 0 0 0 .008-.263q-1-1-2-2c-.324-.325-1.688.207-1.352.542l1.486 1.486c-13.035.384-24.553 9.449-27.072 22.437z" fill="#262626" data-original="#262626"></path><path d="m25.435 56.112a26.962 26.962 0 0 1 -21.667-25.39l.558.558c.223.222.706.115.956 0 .16-.072.623-.333.392-.564q-1-1-2-2c-.284-.284-1.008-.073-1.252.171q-1 1-2 2c-.075.075-.179.182-.146.3s.177.172.278.189a1.3 1.3 0 0 0 1.024-.274l.711-.711a27.627 27.627 0 0 0 22.276 26.573c.515.1 1.711-.689.87-.852z" fill="#262626" data-original="#262626"></path><path d="m55.805 35.059a26.484 26.484 0 0 1 -25.7 21.423l1.545-1.545c.222-.222-.2-.229-.336-.215a1.746 1.746 0 0 0 -.972.341l-2 2c-.063.063-.1.111-.03.179l2 2c.065.065.3.042.366.036a2.265 2.265 0 0 0 .564-.129c.109-.04.61-.219.438-.391l-1.266-1.267a28.112 28.112 0 0 0 26.853-22.55c.139-.7-1.34-.512-1.462.118z" fill="#262626" data-original="#262626"></path><path d="m59.434 28.572a1.16 1.16 0 0 0 -1.024.274l-.7.7a27.739 27.739 0 0 0 -22.455-26.596c-.7-.135-1.473.838-.51 1.024a26.849 26.849 0 0 1 21.482 25.287l-.558-.558a.908.908 0 0 0 -.968-.048c-.183.088-.619.393-.37.642l2 2a1 1 0 0 0 1.259-.143l2-2a.325.325 0 0 0 -.156-.582z" fill="#262626" data-original="#262626"></path></g></g></svg>