<svg xmlns="http://www.w3.org/2000/svg" viewBox="0 0 60 60"><path d="M39.069 59.471a.5.5 0 0 1-.282-.913l9.113-6.236-10.38 5.993a.5.5 0 0 1-.533-.845l10.754-7.341-10.461 6.039a.5.5 0 0 1-.519-.854l3.807-2.441-3.288 1.9a.492.492 0 0 1-.6-.076.5.5 0 0 1-.087-.6l.976-1.763-.289.167a.494.494 0 0 1-.53-.019.5.5 0 0 1-.215-.482l.152-1.059a.473.473 0 0 1-.089-.114.5.5 0 0 1 .182-.682l.234-.135a.5.5 0 0 1 .53.018.5.5 0 0 1 .215.486l-.088.609.96-.554a.5.5 0 0 1 .687.675l-.977 1.764 20.379-11.77a.5.5 0 0 1 .519.854l-3.828 2.454 3.31-1.91a.5.5 0 0 1 .532.845L48.5 50.82l10.219-5.9a.5.5 0 0 1 .532.846l-9.118 6.238 8.586-4.956a.5.5 0 0 1 .539.841L51.9 53.1l6.826-3.941a.5.5 0 0 1 .526.85l-.724.479.2-.113a.5.5 0 0 1 .534.844l-1.608 1.109 1.074-.619a.5.5 0 0 1 .547.835l-2.075 1.52 1.52-.876a.5.5 0 0 1 .565.82l-1.7 1.382 1.136-.656a.5.5 0 0 1 .63.757l-1.359 1.593.7-.4a.5.5 0 1 1 .5.865L55.976 59.4a.5.5 0 0 1-.63-.756l1.354-1.59-4.066 2.346a.5.5 0 0 1-.566-.82l1.7-1.384-3.818 2.2a.5.5 0 0 1-.547-.835l2.066-1.522-4.081 2.361a.5.5 0 0 1-.534-.843l1.607-1.11-3.384 1.953a.5.5 0 0 1-.526-.849l.727-.483-2.307 1.332a.5.5 0 0 1-.539-.84l7.368-5.206L39.319 59.4a.5.5 0 0 1-.25.071zm6.56-22.254a.5.5 0 0 1-.38-.825l1.806-2.111-1.743 1.006a.5.5 0 0 1-.614-.775l.766-.813a.5.5 0 0 1-.032-.883l1.96-1.13a.5.5 0 0 1 .614.775l-.242.257 1.318-.761a.5.5 0 0 1 .63.758l-1.806 2.11 2.509-1.448a.5.5 0 1 1 .5.865l-5.036 2.907a.49.49 0 0 1-.25.068z" fill="#4e9b81"/><path d="M41.662 49.856a.5.5 0 0 1-.283-.912l6.268-4.3-5.469 3.156a.5.5 0 0 1-.535-.844l5.037-3.5-5.163 2.98a.5.5 0 0 1-.551-.832l5.379-4.052-6.788 3.919a.5.5 0 0 1-.549-.834l4.115-3.066-5.843 3.375a.5.5 0 0 1-.544-.837l6.253-4.554-5.71 3.3a.5.5 0 0 1-.593-.8l2.614-2.476-2.018 1.164a.5.5 0 0 1-.68-.686l.96-1.632a.5.5 0 0 1-.486-.874l1.627-.94a.5.5 0 0 1 .6.08.5.5 0 0 1 .076.607l-.959 1.632 4.041-2.33a.5.5 0 0 1 .594.8l-2.612 2.47 10.212-5.895a.5.5 0 0 1 .544.837l-6.249 4.551 5.087-2.936a.5.5 0 0 1 .549.834l-4.115 3.065 6.46-3.729a.5.5 0 0 1 .55.832L48.1 41.484l8.465-4.884a.5.5 0 0 1 .536.843l-5.034 3.5 6.18-3.568a.5.5 0 0 1 .533.845l-6.271 4.305 6.211-3.585a.5.5 0 0 1 .5.865l-17.308 9.984a.494.494 0 0 1-.25.067z" fill="#4e9b81"/><path d="M22.3 45.8a.5.5 0 0 1-.461-.7l.1-.227-1.017.586a.5.5 0 1 1-.5-.865l2.306-1.331a.5.5 0 0 1 .711.627l-.24.567a.49.49 0 0 1 .211.2.5.5 0 0 1-.182.683l-.675.389a.5.5 0 0 1-.253.071zM9.57 37.079a.5.5 0 0 1-.323-.881l.192-.164-.054.031a.5.5 0 0 1-.66-.718l1.193-1.708-.024.013a.5.5 0 1 1-.5-.865l1.972-1.139a.5.5 0 0 1 .66.719l-1.192 1.707 2.894-1.674a.5.5 0 0 1 .573.814l-.2.168.259-.15a.5.5 0 1 1 .5.866l-5.04 2.914a.491.491 0 0 1-.25.067z" fill="#6dccb1"/><path d="M3.691 59.471a.5.5 0 0 1-.277-.916l1.622-1.08L2.222 59.1a.5.5 0 0 1-.538-.841l7.107-5.016-7.477 4.317a.5.5 0 0 1-.514-.855l1.618-1.027-1.135.655a.5.5 0 0 1-.52-.853l4.7-3.029-4.183 2.413a.5.5 0 0 1-.527-.848l9.14-6.1-8.614 4.972a.5.5 0 0 1-.53-.847l9.968-6.748-9.438 5.448a.5.5 0 0 1-.533-.841l8.839-6.074-8.306 4.79a.5.5 0 0 1-.539-.841l6.988-4.955-6.449 3.723a.5.5 0 0 1-.549-.834l6.883-5.121-6.334 3.656a.5.5 0 0 1-.533-.844l3.287-2.257-2.754 1.588a.5.5 0 0 1-.606-.783l2.6-2.64-1.994 1.151a.5.5 0 0 1-.67-.7l.828-1.285a.5.5 0 0 1-.364-.92l1.627-.94a.5.5 0 0 1 .67.7l-.8 1.247 3.4-1.961a.5.5 0 0 1 .606.783l-2.6 2.64L14.6 33.888a.5.5 0 0 1 .533.844l-3.29 2.26 2.719-1.569a.5.5 0 0 1 .548.834l-6.88 5.119 8.278-4.776a.5.5 0 0 1 .539.841L10.056 42.4 20.1 36.6a.5.5 0 0 1 .533.844l-8.833 6.07 10.52-6.075a.5.5 0 0 1 .531.847l-9.969 6.749 9.838-5.68a.5.5 0 0 1 .527.849l-9.136 6.1 8.609-4.97a.5.5 0 0 1 .52.853l-4.7 3.029 4.18-2.416a.5.5 0 0 1 .517.854l-5 3.175a.5.5 0 0 1 .131.883l-7.109 5.016 6.789-3.919a.5.5 0 0 1 .527.848l-1.633 1.089 1.758-1.017a.5.5 0 0 1 .557.828l-5.579 4.335 7.621-4.4a.5.5 0 0 1 .545.836l-3.489 2.548 4.367-2.521a.5.5 0 0 1 .57.817l-4.158 3.475 3.588-2.071a.5.5 0 0 1 .554.829l-.468.36a.5.5 0 0 1 .579.752l-1.307 1.938.477-.275a.5.5 0 0 1 .5.865L20.7 59.4a.5.5 0 0 1-.665-.712l1.307-1.937-4.59 2.65a.5.5 0 0 1-.555-.829l.418-.321-1.988 1.149a.5.5 0 0 1-.57-.816l4.159-3.477-7.437 4.293a.5.5 0 0 1-.545-.836l3.486-2.546L7.862 59.4a.5.5 0 0 1-.556-.827l5.581-4.337L3.941 59.4a.5.5 0 0 1-.25.071z" fill="#6dccb1"/><path d="M43.38 20.414a.5.5 0 0 1-.4-.8l.995-1.306-2.524 1.457a.5.5 0 0 1-.5-.866l4.679-2.7a.5.5 0 0 1 .647.736l-1.037 1.363a.5.5 0 0 1 .344.925l-1.954 1.124a.5.5 0 0 1-.25.067z" fill="#59b297"/><path d="M22.254 28.471a.5.5 0 0 1-.284-.911l9.888-6.848L19.8 27.675a.5.5 0 0 1-.53-.847l9.808-6.638-9.8 5.656a.5.5 0 0 1-.53-.847l10.488-7.109-9.955 5.747a.5.5 0 0 1-.523-.851l6.731-4.4-6.208 3.584a.5.5 0 0 1-.529-.848l9.7-6.536-9.167 5.293a.5.5 0 0 1-.532-.846l8.772-6-11.9 6.869a.5.5 0 0 1-.519-.855l1.842-1.174-2.136 1.234a.5.5 0 0 1-.6-.788l1.38-1.37-1.258.726a.5.5 0 0 1-.636-.751l.951-1.155a.5.5 0 0 1-.271-.932l2.061-1.19a.5.5 0 0 1 .635.751l-.848 1.03 2.2-1.268a.5.5 0 0 1 .6.787l-1.378 1.37L36.221 5.6a.5.5 0 0 1 .518.855l-1.828 1.163 3.5-2.02a.5.5 0 0 1 .532.845l-8.776 6 10.24-5.912a.5.5 0 0 1 .53.847l-9.7 6.537 9.482-5.474a.5.5 0 0 1 .523.852l-6.731 4.4 6.208-3.584a.5.5 0 0 1 .53.847l-10.482 7.105 9.952-5.747a.5.5 0 0 1 .53.848L31.44 19.8l10.466-6.043a.5.5 0 0 1 .534.845l-9.885 6.846 12.168-7.026a.5.5 0 0 1 .531.846l-8.189 5.582 8.555-4.94a.5.5 0 0 1 .522.853l-4.96 3.209a.491.491 0 0 1 .208.182.5.5 0 0 1-.131.678l-1.985 1.41 1.445-.834a.5.5 0 0 1 .558.826l-2.288 1.8 1.73-1a.5.5 0 0 1 .575.813l-1.158.992.584-.338a.5.5 0 0 1 .672.7l-.849 1.334a.5.5 0 0 1 .375.918l-1.619.934a.5.5 0 0 1-.672-.7l.827-1.3-3.493 2.013a.5.5 0 0 1-.575-.813l1.156-.99-3.123 1.8a.5.5 0 0 1-.559-.826l2.289-1.8L30.6 28.4a.5.5 0 0 1-.54-.841l1.987-1.412-3.9 2.253a.5.5 0 0 1-.521-.853l1.388-.9L25.98 28.4a.5.5 0 0 1-.531-.846l8.186-5.58L22.5 28.4a.494.494 0 0 1-.246.071zM27.456 5.87a.5.5 0 0 1-.351-.856l1.214-1.193-.953.55a.5.5 0 0 1-.626-.762l.792-.9a.5.5 0 0 1-.133-.92L29.367.648a.5.5 0 0 1 .626.762l-.511.59L31.223.989a.5.5 0 0 1 .6.79l-1.215 1.194 1.634-.944a.5.5 0 0 1 .5.867L27.706 5.8a.5.5 0 0 1-.25.07z" fill="#59b297"/><path d="M19.031 13.974a.5.5 0 0 1-.285-.911l4.133-2.873-3.6 2.077a.5.5 0 0 1-.579-.81l2.774-2.42-2.2 1.267a.5.5 0 0 1-.6-.792l1.052-1.018-.456.263A.5.5 0 0 1 18.648 8l.473-.56a.486.486 0 0 1-.226-.205.5.5 0 0 1 .182-.683l1.632-.943a.5.5 0 0 1 .632.756l-.076.091L22.75 5.6a.5.5 0 0 1 .6.792L22.3 7.409 25.431 5.6a.5.5 0 0 1 .579.81l-2.775 2.42 9.451-5.456a.5.5 0 0 1 .535.844l-4.13 2.871 2.977-1.719a.5.5 0 1 1 .5.866l-13.287 7.671a.5.5 0 0 1-.25.067z" fill="#59b297"/><g fill="#262626"><path d="M.5 58.113c.806 1.672 2.753 1.409 4.291 1.409h14.667c1.926 0 4.13-.211 4.275-2.683.13-2.206 0-4.456 0-6.667 0-.6-.876-.536-1.211-.265-1.521 1.227-3.325.174-3.746-1.535-.274-2.2 1.836-3.656 3.664-2.188.335.268 1.293.039 1.293-.472V41.35c0-1.338.32-3.163-.759-4.178-1.054-.99-2.869-.694-4.2-.694h-3.485a3.431 3.431 0 0 0-3.087-5 3.677 3.677 0 0 0-3.6 5H3.591c-1.949 0-3.306 1.061-3.324 3.058-.044 4.708 0 9.418 0 14.126 0 1.272-.348 3.25.233 4.451zM1.733 39.1a2.153 2.153 0 0 1 .182-.944c.343-.637.89-.614 1.477-.637 2.1-.082 4.212 0 6.311 0 .338 0 1.067-.422.731-.839-1.234-1.522-.622-4.48 1.785-4.124 2.017.3 2.545 2.818 1.406 4.236-.361.45.115.73.538.73H17.8c1.134 0 3.359-.44 4.154.614.686.908.317 2.895.317 3.936v2.6a3.823 3.823 0 0 0-4.94 4.085 3.653 3.653 0 0 0 4.94 2.472v4.719c0 1.009.158 2.351-1.2 2.527a8.008 8.008 0 0 1-1 0h-13.2a25.051 25.051 0 0 1-3.786 0c-1.766-.282-1.352-2.614-1.352-3.9V41.044c0-.644-.033-1.299 0-1.944zm16.544-19.114v3.194c0 1.123-.283 2.717.163 3.788.836 2.006 4.354 1.373 6.065 1.373h10.179c1.826 0 4.82.514 6.293-.866 1.044-.98.746-2.662.746-3.957v-3.331a4.032 4.032 0 0 0 4.943-2.728c.39-3.079-2.536-4.314-4.943-3.458v-3.667c0-1.339.362-3.285-.867-4.207-1.03-.773-2.885-.467-4.083-.467h-3.661A3.228 3.228 0 0 0 30 .675c-2.6.2-4.53 2.673-3.294 4.985H23.59c-1.422 0-3.116-.237-4.333.667-1.3.962-.98 2.741-.98 4.157v3.342c-2.168-.543-4.85.7-4.993 3.155-.168 2.894 2.739 3.782 4.993 3.005zm.046-4.953c.294.236 1.4-.011 1.4-.456v-3.632c0-1.1-.347-2.955.218-3.972.607-1.092 2.744-.63 3.771-.63h3.758c.206 0 1.261-.25.979-.6-1.289-1.611-.5-5.572 2.308-4.1a2.871 2.871 0 0 1 .809 4.382c-.209.26.183.316.363.316h3.756c1.3 0 3.615-.461 4.365.936.551 1.027.224 2.827.224 3.931v3.755c0 .393 1.154-.023 1.29-.132 1.989-1.6 3.9.987 3.665 2.85a2.14 2.14 0 0 1-3.552 1.286c-.294-.235-1.4.011-1.4.456 0 2.219.18 4.512 0 6.723-.106 1.3-.78 1.51-1.8 1.51H22.434c-.965 0-1.927.1-2.484-.935s-.224-2.824-.224-3.931v-3.753c0-.393-1.154.023-1.29.132-1.543 1.234-3.478-.294-3.682-1.97-.254-2.105 1.794-3.591 3.569-2.166zm41.408 23.904a2.5 2.5 0 0 0-2.573-2.424c-1.958-.092-3.936-.025-5.9-.007a3.4 3.4 0 0 0-3.316-4.989 3.643 3.643 0 0 0-3.322 5h-3.07c-1.4 0-3.152-.27-4.318.681-1.26 1.028-.963 2.716-.963 4.162v4.481c0 .575.891.473 1.2.224 1.941-1.558 4.006.5 3.748 2.573a2.174 2.174 0 0 1-3.653 1.2c-.311-.251-1.3-.017-1.3.462v6.246a2.7 2.7 0 0 0 3.039 2.944h14.239a15.3 15.3 0 0 0 4.211-.138c2.078-.638 1.978-2.462 1.978-4.193v-14.6c0-.54.028-1.085 0-1.622zm-1.462 18.1c-.159 1.938-2.061 1.475-3.455 1.475H41.28c-.624 0-1.259.035-1.882 0-1.217-.07-1.658-.954-1.667-2.039-.016-1.721-.007-3.444 0-5.165a3.957 3.957 0 0 0 4.951-2.81c.375-3.005-2.51-4.561-4.948-3.685v-2.62c0-1.126-.3-2.735.1-3.819.515-1.391 2.865-.888 4.043-.888h3.633c.31 0 1.322-.3.927-.794-1.132-1.41-.8-4.312 1.514-4.2 2.167.106 2.9 2.81 1.682 4.323a.393.393 0 0 0 .337.669h5.664c1.054 0 2.242-.1 2.578 1.229a5.353 5.353 0 0 1 .058 1.3v13.145c-.001 1.278.104 2.605-.001 3.88z"/><path d="M24.324 19.272c.325.325 1.689-.207 1.352-.544L23.8 16.857l1.865-1.864c.244-.245-.208-.37-.377-.365a1.4 1.4 0 0 0-.961.379l-2 2a.192.192 0 0 0-.007.265zm10.369.046a1.578 1.578 0 0 0 .967-.357l2-2c.067-.067.091-.146.02-.216l-2-2c-.075-.075-.287-.068-.373-.063a1.822 1.822 0 0 0-.565.124c-.125.049-.619.253-.422.449l1.9 1.9q-.942.94-1.882 1.882c-.232.236.206.292.355.281zm-5.822.97c.219-.037.758-.149.845-.41l1.752-5.256c.083-.248.165-.5.248-.744s-.474-.185-.587-.166c-.219.037-.758.148-.845.41l-1.752 5.256c-.083.248-.165.5-.248.744s.474.185.587.166zm1.853 11.518c0-.336-1.448-.1-1.448.388v8.138l-1.6-1.6c-.31-.311-1.668.218-1.354.532l3 3c.146.147.493.087.659.052a1.342 1.342 0 0 0 .684-.335l3-3c.243-.244-.209-.341-.369-.338a1.436 1.436 0 0 0-.963.372l-1.61 1.61v-8.819z"/></g></svg>