<svg xmlns="http://www.w3.org/2000/svg" viewBox="0 0 60 60"><g><path d="m4.313 59.471a.5.5 0 0 1 -.266-.923l1.64-1.035-3.276 1.887a.5.5 0 0 1 -.524-.85l8.145-5.346-8.752 5.056a.5.5 0 0 1 -.531-.847l8.98-6.1-8.449 4.88a.5.5 0 0 1 -.54-.839l7.988-5.7-7.448 4.3a.5.5 0 0 1 -.546-.836l5.566-4.085-4.947 2.857a.5.5 0 0 1 -.568-.82l4.337-3.559-3.139 1.811a.5.5 0 0 1 -.583-.8l1.983-1.77a.5.5 0 0 1 -.134-.919l3.344-1.933a.5.5 0 0 1 .583.806l-1.483 1.319 4.207-2.425a.5.5 0 0 1 .568.819l-4.34 3.56 7.589-4.379a.5.5 0 0 1 .546.836l-5.563 4.079 8.516-4.915a.5.5 0 0 1 .54.84l-7.988 5.7 11.332-6.54a.5.5 0 0 1 .531.846l-8.975 6.094 12.022-6.94a.5.5 0 0 1 .524.85l-8.149 5.35 10.062-5.809a.5.5 0 0 1 .517.856l-1.651 1.042 2.379-1.373a.5.5 0 0 1 .523.851l-5.5 3.573 6.236-3.6a.5.5 0 0 1 .522.853l-3.551 2.284 3.984-2.3a.5.5 0 0 1 .53.846l-6.647 4.5 7.087-4.091a.5.5 0 0 1 .544.837l-7.609 5.539 7.876-4.548a.5.5 0 0 1 .541.84l-4.423 3.143 4.15-2.4a.5.5 0 0 1 .549.834l-3.44 2.559 2.988-1.724a.5.5 0 0 1 .579.809l-3.03 2.644 2.452-1.415a.5.5 0 0 1 .573.813l-.5.423a.505.505 0 0 1 .51.1.5.5 0 0 1 .122.574l-.61 1.365a.506.506 0 0 1 .5.246.5.5 0 0 1 -.183.684l-1.123.647a.5.5 0 0 1 -.707-.636l.582-1.306-3.362 1.94a.5.5 0 0 1 -.573-.813l.472-.4-2.105 1.213a.5.5 0 0 1 -.579-.809l3.027-2.64-5.977 3.449a.5.5 0 0 1 -.549-.834l3.442-2.561-5.881 3.395a.5.5 0 0 1 -.54-.84l4.42-3.141-6.9 3.981a.5.5 0 0 1 -.544-.837l7.611-5.54-11.042 6.377a.5.5 0 0 1 -.531-.846l6.654-4.5-9.265 5.346a.5.5 0 0 1 -.521-.852l3.539-2.285-5.435 3.137a.5.5 0 0 1 -.522-.851l5.51-3.577-7.671 4.428a.5.5 0 0 1 -.25.071z" fill="#346d92" data-original="#346d92" class=""></path><path d="m16.786 54.824a.5.5 0 0 1 -.446-.725l.764-1.511-.704.412a.5.5 0 0 1 -.625-.764l.879-1-.74.427a.5.5 0 0 1 -.593-.8l.922-.863-.776.447a.5.5 0 0 1 -.575-.812l1.065-.912-.924.533a.5.5 0 0 1 -.577-.811l2.237-1.945-2.2 1.268a.5.5 0 0 1 -.583-.8l3.106-2.773-3.162 1.825a.5.5 0 0 1 -.552-.83l1.154-.881-1.012.584a.5.5 0 0 1 -.563-.823l1.71-1.374-1.313.758a.5.5 0 0 1 -.6-.791l1.239-1.2-.641.369a.5.5 0 0 1 -.739-.536l.319-1.5a.5.5 0 0 1 -.08-.9l.5-.29a.5.5 0 0 1 .739.537l-.262 1.257 3.147-1.818a.5.5 0 0 1 .6.791l-1.24 1.205 3.477-2.007a.5.5 0 0 1 .564.823l-1.71 1.373 2.131-1.23a.5.5 0 0 1 .552.83l-1.151.879.6-.346a.5.5 0 0 1 .583.806l-3.106 2.773 2.524-1.457a.5.5 0 0 1 .577.811l-2.238 1.94 1.082-.624a.5.5 0 0 1 .575.813l-1.128.965a.506.506 0 0 1 .541.182.5.5 0 0 1 -.059.662l-1.068 1a.517.517 0 0 1 .434.182.5.5 0 0 1 -.012.648l-1.072 1.213a.5.5 0 0 1 .4.724l-1.073 2.122a.5.5 0 0 1 -.106.784l-.541.313a.5.5 0 0 1 -.25.067z" fill="#89674d" data-original="#89674d"></path><path d="m13.924 17.321a.5.5 0 0 1 -.358-.849l1.964-2.011-3.23 1.862a.5.5 0 0 1 -.612-.778l1.251-1.307a.489.489 0 0 1 -.441-.25.5.5 0 0 1 .183-.682l2.639-1.525a.5.5 0 0 1 .612.779l-1.1 1.146 3.336-1.926a.5.5 0 0 1 .607.783l-1.964 2.011 3.273-1.888a.5.5 0 0 1 .626.761l-1.24 1.424 1.718-.991a.5.5 0 0 1 .667.707l-.48.73.265-.152a.5.5 0 0 1 .5.865l-2.093 1.208a.5.5 0 0 1 -.668-.707l.48-.73-2.5 1.444a.5.5 0 0 1 -.626-.762l1.246-1.424-3.8 2.2a.489.489 0 0 1 -.255.062z" fill="#514033" data-original="#514033"></path><path d="m8 29.482a.5.5 0 0 1 -.286-.91l6.363-4.451-7.464 4.309a.5.5 0 0 1 -.526-.85l2.84-1.88-2.647 1.524a.5.5 0 0 1 -.529-.848l3-2.018-2.419 1.4a.5.5 0 0 1 -.531-.846l2.162-1.471-1.371.791a.5.5 0 0 1 -.566-.82l4.573-3.72-2.888 1.663a.5.5 0 0 1 -.564-.822l1.727-1.389a.5.5 0 0 1 .042-.839l3.57-2.062a.5.5 0 0 1 .564.822l-.237.191 2.708-1.563a.5.5 0 0 1 .565.821l-4.57 3.717 7.695-4.442a.5.5 0 0 1 .531.846l-2.166 1.473 3.294-1.9a.5.5 0 0 1 .529.848l-2.994 2.013 3.934-2.27a.5.5 0 0 1 .526.849l-2.844 1.887 3.528-2.035a.5.5 0 0 1 .536.843l-6.361 4.447 7.176-4.141a.5.5 0 0 1 .534.845l-4.025 2.773 4.386-2.533a.5.5 0 0 1 .547.835l-4.722 3.477 4.991-2.882a.5.5 0 0 1 .556.828l-3.672 2.839 3.71-2.142a.5.5 0 0 1 .559.827l-1.883 1.473 1.656-.956a.5.5 0 0 1 .563.822l-.517.416.114-.066a.5.5 0 0 1 .6.79l-.563.549a.5.5 0 0 1 .491.871l-3.449 1.985a.5.5 0 0 1 -.6-.79l.563-.55-2.325 1.342a.5.5 0 0 1 -.562-.822l.515-.415-2.144 1.238a.5.5 0 0 1 -.559-.826l1.881-1.472-3.984 2.3a.5.5 0 0 1 -.556-.828l3.675-2.837-6.359 3.671a.5.5 0 0 1 -.547-.835l4.726-3.476-7.471 4.312a.5.5 0 0 1 -.533-.845l4.023-2.77-6.27 3.618a.491.491 0 0 1 -.249.067z" fill="#5b4838" data-original="#5b4838"></path><path d="m23.96 48.471a.5.5 0 0 1 -.25-.933l1.973-1.138a.5.5 0 0 1 .5.866l-1.973 1.134a.5.5 0 0 1 -.25.071z" fill="#f0f2f5" data-original="#f0f2f5"></path><path d="m17.18 54.09a.5.5 0 0 1 -.318-.887l3.938-3.237-2.409 1.39a.5.5 0 0 1 -.554-.83l1-.763a.5.5 0 0 1 -.424-.873l1.3-1.1-.052.029a.5.5 0 0 1 -.6-.79l1.061-1.029a.466.466 0 0 1 -.368-.137.5.5 0 0 1 -.1-.59l.807-1.577a.361.361 0 0 1 -.033-.05.5.5 0 0 1 .182-.683l.45-.26a.5.5 0 0 1 .7.66l-.44.859 1.579-.91a.5.5 0 0 1 .648.13.5.5 0 0 1 -.049.66l-.891.873 1.511-.873a.5.5 0 0 1 .573.815l-1.309 1.1 1.518-.876a.5.5 0 0 1 .553.83l-.842.642.951-.548a.5.5 0 0 1 .567.82l-4.199 3.448a.483.483 0 0 1 .459.249.5.5 0 0 1 -.183.683l-4.776 2.757a.493.493 0 0 1 -.25.068z" fill="#f0f2f5" data-original="#f0f2f5"></path><path d="m16.887 59.48a.5.5 0 0 1 -.359-.848l.832-.854-2.215 1.28a.5.5 0 0 1 -.579-.81l2.288-1.992-2.257 1.3a.5.5 0 0 1 -.651-.732l1.074-1.438-1 .579a.5.5 0 0 1 -.62-.77l.526-.577-.329.19a.5.5 0 0 1 -.627-.762l.682-.782-.511.295a.5.5 0 0 1 -.6-.788l.117-.115a.5.5 0 0 1 -.52-.779l1.143-1.588-1.1.635a.5.5 0 0 1 -.627-.761l.691-.795-.522.3a.5.5 0 0 1 -.636-.751l.857-1.038-1.082.624a.5.5 0 0 1 -.6-.789l.314-.311-1.559.9a.5.5 0 0 1 -.582-.806l.865-.771-.932.538a.5.5 0 0 1 -.608-.782l1.54-1.582a.452.452 0 0 1 -.092-.115.5.5 0 0 1 .183-.682l1.609-.935a.5.5 0 0 1 .608.781l-.638.657 2.054-1.185a.5.5 0 0 1 .582.806l-.863.773.71-.409a.5.5 0 0 1 .6.789l-.314.309.093-.053a.5.5 0 0 1 .636.751l-.857 1.037.721-.415a.5.5 0 0 1 .627.761l-.691.794.52-.3a.5.5 0 0 1 .656.724l-1.144 1.586 1.1-.633a.5.5 0 0 1 .6.788l-.119.117a.5.5 0 0 1 .491.816l-.684.783.512-.3a.5.5 0 0 1 .64.12.5.5 0 0 1 -.02.65l-.52.585.326-.188a.5.5 0 0 1 .65.731l-1.076 1.436 4.632-2.674a.5.5 0 0 1 .578.809l-2.287 1.991.877-.505a.5.5 0 0 1 .608.781l-1.031 1.056a.5.5 0 0 1 .231.933l-2.669 1.541a.489.489 0 0 1 -.252.069z" fill="#f0f2f5" data-original="#f0f2f5"></path><path d="m25.207 27.337a.5.5 0 0 1 -.25-.933l1.362-.787a.5.5 0 1 1 .5.865l-1.362.788a.5.5 0 0 1 -.25.067z" fill="#9b7759" data-original="#9b7759"></path><path d="m16.584 24.379a.5.5 0 0 1 -.25-.933l1.342-.774a.5.5 0 0 1 .5.865l-1.342.775a.5.5 0 0 1 -.25.067z" fill="#9b7759" data-original="#9b7759"></path><path d="m16.433 42.374a.5.5 0 0 1 -.3-.9l.714-.528-1.53.883a.5.5 0 0 1 -.555-.829l4.3-3.38-5.319 3.07a.5.5 0 0 1 -.538-.84l5.445-3.84-6.25 3.608a.5.5 0 0 1 -.539-.841l7.058-5-7.9 4.56a.5.5 0 0 1 -.543-.838l6-4.328-6.42 3.706a.5.5 0 0 1 -.548-.834l6.382-4.726-6.407 3.7a.5.5 0 0 1 -.531-.847l1.762-1.2-1.4.81a.5.5 0 0 1 -.53-.847l.237-.16-.749.433a.5.5 0 0 1 -.545-.836l4.473-3.27-5.3 3.061a.5.5 0 0 1 -.627-.761l1.36-1.566-1.321.766a.5.5 0 0 1 -.651-.732l1.164-1.568-.546.314a.5.5 0 0 1 -.655-.725l.418-.578a.509.509 0 0 1 -.269-.223.5.5 0 0 1 .183-.683l1.366-.789a.5.5 0 0 1 .656.726l-.172.237.616-.355a.5.5 0 0 1 .651.731l-1.163 1.563 1.8-1.04a.5.5 0 0 1 .628.76l-1.359 1.568 10.8-6.234a.5.5 0 0 1 .545.836l-4.476 3.27 5.344-3.085a.5.5 0 0 1 .529.847l-.24.162.574-.331a.5.5 0 0 1 .531.846l-1.758 1.194 2.172-1.253a.5.5 0 0 1 .548.834l-6.382 4.725 7.334-4.237a.5.5 0 0 1 .543.838l-6 4.327 8.672-5.007a.5.5 0 0 1 .539.841l-7.054 5.006 6.511-3.759a.5.5 0 0 1 .538.841l-5.449 3.84 1.812-1.046a.5.5 0 0 1 .559.825l-4.3 3.383 3.184-1.838a.5.5 0 0 1 .547.835l-1.455 1.073a.5.5 0 0 1 .184.928l-6.649 3.84a.494.494 0 0 1 -.249.067z" fill="#9b7759" data-original="#9b7759"></path><path d="m46.483 23.482a.5.5 0 0 1 -.25-.932l12.488-7.21a.5.5 0 0 1 .563.822l-3.921 3.16 3.358-1.938a.5.5 0 0 1 .55.833l-.386.289a.5.5 0 0 1 .43.853l-1.15 1.1.427-.246a.5.5 0 0 1 .5.865l-4.041 2.332a.5.5 0 0 1 -.595-.794l1.149-1.1-3.28 1.893a.5.5 0 0 1 -.55-.833l.18-.135-1.678.969a.5.5 0 0 1 -.563-.822l3.922-3.16-6.9 3.984a.494.494 0 0 1 -.253.07z" fill="#59b297" data-original="#59b297"></path><path d="m36.945 29.424a.5.5 0 0 1 -.276-.917l8.67-5.754-9.061 5.23a.5.5 0 0 1 -.52-.853l5.515-3.55-5 2.89a.5.5 0 0 1 -.524-.851l7.977-5.219-7.468 4.311a.5.5 0 0 1 -.526-.85l9.2-6.081-9.761 5.63a.5.5 0 0 1 -.529-.847l12.015-8.088-14.257 8.232a.5.5 0 0 1 -.52-.853l9.016-5.791-9.4 5.427a.5.5 0 0 1 -.524-.85l13.023-8.556-12.715 7.339a.5.5 0 0 1 -.519-.854l8.385-5.364-7.866 4.541a.5.5 0 0 1 -.523-.85l9.913-6.489-9.39 5.421a.5.5 0 0 1 -.531-.847l9.815-6.664-9.285 5.361a.5.5 0 0 1 -.529-.848l6.2-4.178-5.669 3.273a.5.5 0 0 1 -.531-.846l4.118-2.8-3.587 2.071a.5.5 0 0 1 -.547-.835l4.833-3.56-4.288 2.476a.5.5 0 0 1 -.541-.839l1.391-.992-.85.49a.5.5 0 0 1 -.6-.793l2.891-2.786-2.291 1.321a.5.5 0 0 1 -.643-.741l1.074-1.367a.509.509 0 0 1 -.463-.249.5.5 0 0 1 .183-.683l1.934-1.116a.5.5 0 0 1 .644.741l-.986 1.255 3.593-2.072a.5.5 0 0 1 .6.793l-2.894 2.784 6.2-3.577a.5.5 0 0 1 .541.839l-1.388.992 3.175-1.831a.5.5 0 0 1 .547.835l-4.835 3.56 7.614-4.395a.5.5 0 0 1 .531.845l-4.114 2.8 6.308-3.645a.5.5 0 0 1 .53.847l-6.206 4.18 8.714-5.027a.5.5 0 0 1 .532.846l-9.813 6.659 13.006-7.505a.5.5 0 0 1 .524.85l-9.912 6.484 11.4-6.583a.5.5 0 0 1 .525.849l-8.387 5.368 8.7-5.022a.5.5 0 0 1 .524.85l-13.02 8.554 12.7-7.334a.5.5 0 0 1 .52.854l-9.025 5.8 8.5-4.911a.5.5 0 0 1 .529.848l-12.006 8.084 11.485-6.631a.5.5 0 0 1 .525.85l-9.2 6.081 8.672-5.007a.5.5 0 0 1 .523.851l-7.977 5.221 7.454-4.3a.5.5 0 0 1 .52.853l-5.518 3.551 5-2.885a.5.5 0 0 1 .526.85l-18.645 12.375a.5.5 0 0 1 -.25.437l-3.15 1.819a.5.5 0 0 1 -.255.068z" fill="#59b297" data-original="#59b297"></path><g fill="#262626"><path d="m.469 58.785a1.749 1.749 0 0 0 1.638.65c1.658.031 3.32 0 4.978 0h7.552a1.06 1.06 0 0 0 .287 0h3.617a1.068 1.068 0 0 0 .641 0h11.418c1.308 0 3.044.024 3.131-1.714.071-1.4 0-2.813 0-4.212a13.6 13.6 0 0 0 -.349-4.043 8.375 8.375 0 0 0 -3.955-4.846 10.175 10.175 0 0 0 -5.058-1.054 1.976 1.976 0 0 0 -.374-.171l-2.259-.753v-2.682c.186-.155.373-.309.56-.459a9.471 9.471 0 0 0 1.964-1.9 9.456 9.456 0 0 0 1.419-4.256 3.824 3.824 0 0 0 2.818-2.252 9.2 9.2 0 0 0 .236-3.417 3.037 3.037 0 0 0 -.028-.308c.007-.021.025-.039.024-.06a13.462 13.462 0 0 0 -1.081-5.913 9.291 9.291 0 0 0 -5.006-4.684c.511-2.354-1.328-4.315-3.477-4.955a6.74 6.74 0 0 0 -6.853 1.717 3.934 3.934 0 0 0 -.939 3.452 9.72 9.72 0 0 0 -4.873 4.495 13.26 13.26 0 0 0 -1.228 6.274c0 .005.009.008.011.013 0 .041-.014.078-.015.12a11.933 11.933 0 0 0 .1 3.115 3.439 3.439 0 0 0 2.932 2.48 9.06 9.06 0 0 0 1.2 4.1 8.832 8.832 0 0 0 2.058 2.057c.24.192.479.392.718.592v2.639l-1.573.525c-.244.081-.471.152-.687.238-3.323.051-6.441 1.071-8.37 3.99-1.674 2.531-1.372 5.484-1.372 8.361 0 .793-.252 2.144.195 2.861zm31.3-9.4c.834 2.224.507 4.882.507 7.213 0 .255.154 1.8-.043 1.966-.13.109-.817 0-.985 0h-11.379l3.011-8.243c.18-.493.373-.984.541-1.481.082-.241.043-.262.272-.35a3.863 3.863 0 0 1 1.047 0c1.027-.031 2.28-.763 1.936-1.973a7.114 7.114 0 0 0 -1.333-1.924l-.074-.1a7.43 7.43 0 0 1 2.863.779 7.742 7.742 0 0 1 3.635 4.114zm-14.769-36.842c2.095.048 4.312 1.51 4.24 3.684a14.648 14.648 0 0 0 -3.764-.527h-.014a16.443 16.443 0 0 0 -4.665.689c-.381-2.374 2.03-3.897 4.203-3.846zm-5.159 4.824a1 1 0 0 0 .931-.4 11.222 11.222 0 0 1 3.759-.67 12.894 12.894 0 0 1 4.7.888.494.494 0 0 0 .317.148 9.033 9.033 0 0 1 4.839 4.88 11.278 11.278 0 0 1 .8 3.382 2.363 2.363 0 0 0 -.511-.054 2.261 2.261 0 0 0 -2.088 1.2c-.708-.62-1.425-1.228-2.163-1.81-1.239-.978-3.039-2.652-4.768-2.338-1.173.212-1.545 1-2.172 1.882a6.719 6.719 0 0 1 -2.769 2.157 10.765 10.765 0 0 1 -3.013.846 1.915 1.915 0 0 0 -1.935-1.935 2.641 2.641 0 0 0 -1 .164 11.5 11.5 0 0 1 .709-3.523 8.712 8.712 0 0 1 4.361-4.817zm-2.117 15.439c-.016-.184-.314-.263-.455-.263-2.116 0-2.541-2-2.541-3.662a12.456 12.456 0 0 1 0-1.446c.1-.786.576-1.286 1.255-.587a1.653 1.653 0 0 1 .289 1.229c0 .344.364.393.643.376 2.8-.17 5.982-1.356 7.731-3.622.316-.41.663-1.325 1.272-1.321a2.746 2.746 0 0 1 1.007.5 21.214 21.214 0 0 1 2.362 1.678c1.048.829 2.065 1.7 3.044 2.612.3.28 1.4.165 1.4-.375a3.357 3.357 0 0 1 .031-.8c.237-.91 1.1-.694 1.4.054a4.5 4.5 0 0 1 .112 1.652c0 1.606-.064 3.613-2.187 3.72h-.011c-.037.005-.072.014-.108.021a.993.993 0 0 0 -.169.04c-.27.089-.5.254-.525.467a8.063 8.063 0 0 1 -2.9 5.9c-.186.148-.377.311-.572.479a.676.676 0 0 0 -.5.436c-1.125.96-2.4 1.913-3.839 1.55a7.39 7.39 0 0 1 -2.761-1.738.351.351 0 0 0 -.248-.217c-.345-.306-.677-.6-.991-.856-1.914-1.533-2.521-3.456-2.739-5.827zm7.191 9.647a5.865 5.865 0 0 0 3.354-1.327v1.9q-1.617 4.444-3.233 8.89l-2.808-7.726-.5-1.378v-1.492a5.209 5.209 0 0 0 3.187 1.133zm-4.485 1.167 3.342 9.19.5 1.384c.2.551 1.237.383 1.417-.111l3.5-9.616.261-.716 1.153.385c.269.089.539.176.807.269v.006a1.9 1.9 0 0 0 .293.391 13.907 13.907 0 0 1 1.408 1.877c.1.2.232.487.092.706-.105.166-.03.084-.328.123-.354.048-.725-.025-1.081 0-1.556.115-1.827 1.422-2.265 2.622l-1.878 5.14-1.2 3.294h-2.815l-2.373-6.5c-.406-1.112-.789-2.234-1.219-3.336a1.7 1.7 0 0 0 -.712-.975c-.618-.35-1.3-.073-1.946-.2-1.27-.241-.34-1.352.062-1.889l1.059-1.411zm-10.704 10.933c0-.992-.038-1.992.008-2.983a7.654 7.654 0 0 1 2.86-5.676 7.215 7.215 0 0 1 4.335-1.439c-.9 1.058-2.672 3.124-.812 3.858.754.3 1.937-.254 2.389.563a7.353 7.353 0 0 1 .375 1.026l1.929 5.28 1.236 3.383h-9.478c-.855 0-2.56.392-2.842-.7a14.8 14.8 0 0 1 0-3.312z" fill="#262626" data-original="#262626" class=""></path><path d="m59.724 3.807c-.224-4.107-5.487-3.207-8.274-3.207h-13.727c-2.856 0-7.31-.442-7.447 3.624-.125 3.694 0 7.413 0 11.11 0 1.605-.068 3.226 0 4.83a3.282 3.282 0 0 0 2.2 3.028 8 8 0 0 0 2.8.216 42.378 42.378 0 0 0 0 4.62c.2 1.907 2.289 1.393 3.384.627l4.951-3.468 2.24-1.568c.076-.053.2-.118.315-.189a16.533 16.533 0 0 0 1.921-.031h3.375c1.514 0 3.068.105 4.579-.018a3.794 3.794 0 0 0 3.683-3.749c.022-1.448 0-2.9 0-4.345zm-2.292 18.32c-1.048.893-3.287.484-4.547.484h-5.714a3.451 3.451 0 0 0 -2.327.693l-4.63 3.243-2.28 1.6c-.618.433-1.045.7-1.21-.453a35.755 35.755 0 0 1 0-4.877c0-.17-.336-.2-.438-.2a11.636 11.636 0 0 1 -2.483-.055 2.834 2.834 0 0 1 -2.079-2.806c-.044-1.156 0-2.323 0-3.479v-11.503c0-1.468.19-3.2 2.066-3.378.98-.09 2.012 0 2.994 0h17.694c.391 0 .787-.019 1.177 0a2.783 2.783 0 0 1 2.621 2.8v14.161c0 1.25.224 2.859-.844 3.77z" fill="#262626" data-original="#262626" class=""></path><path d="m36.845 11.861 3.722-2.793c.23-.172.169-.373-.11-.411a1.517 1.517 0 0 0 -1.024.275l-4 3c-.084.062-.249.229-.111.332l4 3c.248.186.687.067.946-.035.109-.043.65-.314.41-.494z" fill="#262626" data-original="#262626" class=""></path><path d="m50.679 8.74c-.242-.182-.692-.051-.943.046-.1.04-.648.3-.415.474l3.845 2.885-3.73 2.8c-.225.168-.177.357.1.389a1.562 1.562 0 0 0 1.024-.274l4-3c.08-.06.251-.216.115-.318z" fill="#262626" data-original="#262626" class=""></path><path d="m45.288 8.136q-.877 3.507-1.754 7.014l-.246.986c-.061.242 1.34.066 1.424-.272q.877-3.507 1.754-7.014l.246-.986c.061-.242-1.34-.064-1.424.272z" fill="#262626" data-original="#262626" class=""></path></g></g></svg>