<svg xmlns="http://www.w3.org/2000/svg" version="1.1" xmlns:xlink="http://www.w3.org/1999/xlink"
    xmlns:svgjs="http://svgjs.com/svgjs" width="512" height="512" x="0" y="0" viewBox="0 0 60 60"
    style="enable-background:new 0 0 512 512" xml:space="preserve" class="">
    <g>
        <g xmlns="http://www.w3.org/2000/svg" fill="#3b7ac8">
            <path
                d="m48.033 29.468a.5.5 0 0 1 -.386-.819l.135-.162-.793.457a.5.5 0 0 1 -.652-.729l.921-1.25-1.6.921a.5.5 0 0 1 -.647-.737l.872-1.139-1.579.911a.5.5 0 0 1 -.643-.742l.831-1.052-1.576.909a.5.5 0 0 1 -.607-.783l.246-.248-.726.418a.5.5 0 0 1 -.608-.781l.324-.333-.9.516a.5.5 0 0 1 -.645-.733l.934-1.239-2.073 1.2a.5.5 0 0 1 -.6-.791l.19-.186-.891.514a.5.5 0 0 1 -.681-.686l1.08-1.845-3.132 1.807a.5.5 0 0 1 -.645-.739l1.09-1.4-3.071 1.772a.5.5 0 0 1 -.628-.76l1.137-1.313-3.478 2.004a.5.5 0 0 1 -.586-.8l.728-.664-3.1 1.788a.5.5 0 0 1 -.579-.81l1.026-.895-5.436 3.138a.5.5 0 0 1 -.5-.866l9.874-5.7a.5.5 0 0 1 .579.81l-1.024.894 2.666-1.539a.5.5 0 0 1 .587.8l-.73.664 2.047-1.181a.5.5 0 0 1 .628.76l-1.137 1.314 2.713-1.566a.5.5 0 0 1 .645.739l-1.09 1.4 2.557-1.471a.5.5 0 0 1 .681.686l-1.081 1.846 2.727-1.577a.5.5 0 0 1 .6.791l-.19.186.734-.424a.5.5 0 0 1 .65.733l-.936 1.24 1.9-1.093a.5.5 0 0 1 .608.781l-.322.331.79-.456a.5.5 0 0 1 .606.783l-.246.25.642-.37a.5.5 0 0 1 .642.742l-.831 1.052 1.487-.857a.5.5 0 0 1 .647.736l-.872 1.14 1.5-.865a.5.5 0 0 1 .652.73l-.919 1.249 1.125-.65a.5.5 0 0 1 .635.751l-.459.556a.489.489 0 0 1 .262.22.5.5 0 0 1 -.183.682l-1.658.958a.49.49 0 0 1 -.258.072z"
                fill="#3b7ac8" data-original="#3b7ac8" class=""></path>
            <path
                d="m11.342 29.352a.5.5 0 0 1 -.28-.914l4.059-2.744-4.606 2.66a.5.5 0 0 1 -.53-.848l1.571-1.056-1.254.724a.5.5 0 0 1 -.539-.841l2.337-1.657a.5.5 0 0 1 -.03-.882l6.93-3.994a.5.5 0 0 1 .539.841l-.382.27 4.559-2.632a.5.5 0 0 1 .529.848l-1.567 1.054 4.2-2.422a.5.5 0 0 1 .53.847l-4.071 2.744 6.5-3.75a.5.5 0 1 1 .5.865l-18.745 10.819a.5.5 0 0 1 -.25.068z"
                fill="#3b7ac8" data-original="#3b7ac8" class=""></path>

        </g>
        <path xmlns="http://www.w3.org/2000/svg"
            d="m46.574 28.775a2.487 2.487 0 0 0 2.462.265c8.937-4.14-20.847-19.521-36.369-5.81-7.272 4.484-1.383 9.26 3.891 3.558 9.458-7.038 21.172-4.221 30.016 1.987zm-12.692-7.038c-12.227-3.07-22.377 9.7-23.108 5.514 6.474-9.786 23.1-10.943 32.887-4.913 1.624 1.151 8.07 4.166 4.468 6.087-4.413-2.719-8.809-6.119-14.247-6.688z"
            fill="#262626" data-original="#262626" class=""></path>
    </g>
</svg>