<svg xmlns="http://www.w3.org/2000/svg" version="1.1" xmlns:xlink="http://www.w3.org/1999/xlink"
    xmlns:svgjs="http://svgjs.com/svgjs" width="512" height="512" x="0" y="0" viewBox="0 0 60 60"
    style="enable-background:new 0 0 512 512" xml:space="preserve" class="">
    <g>
        <g xmlns="http://www.w3.org/2000/svg" fill="#3b7ac8">
            <path
                d="m57.022 22.469a.5.5 0 0 1 -.393-.808l.3-.39-1.027.592a.5.5 0 0 1 -.641-.744l.831-1.044-1.283.739a.5.5 0 0 1 -.618-.093.5.5 0 0 1 -.043-.623l1-1.444-1.713.989a.5.5 0 0 1 -.65-.732l.919-1.233-1.618.933a.5.5 0 0 1 -.662-.716l1-1.446-1.886 1.088a.5.5 0 0 1 -.665-.711l1.015-1.512-2.041 1.178a.5.5 0 0 1 -.668-.707l1.03-1.565-2.2 1.267a.5.5 0 0 1 -.6-.787l.235-.233-.786.453a.5.5 0 0 1 -.615-.774l.542-.58-1.293.747a.5.5 0 0 1 -.632-.755l.827-.98-1.865 1.076a.5.5 0 0 1 -.673-.7l1.084-1.722-2.818 1.628a.5.5 0 0 1 -.639-.747l.991-1.223-2.461 1.42a.5.5 0 0 1 -.6-.787l.564-.563-1.727 1a.5.5 0 0 1 -.649-.733l1.162-1.542-3.287 1.9a.5.5 0 0 1 -.619-.771l1.05-1.149-3.041 1.756a.5.5 0 0 1 -.626-.763l1.279-1.458-3.964 2.288a.5.5 0 0 1 -.632-.756l1.537-1.817-5.481 3.163a.5.5 0 0 1 -.61-.779l1.905-1.976-8.88 5.127a.5.5 0 0 1 -.5-.865l11.955-6.9a.5.5 0 0 1 .61.779l-1.906 1.974 4.888-2.822a.5.5 0 0 1 .632.756l-1.536 1.817 4.109-2.373a.5.5 0 0 1 .626.763l-1.281 1.459 3.244-1.873a.5.5 0 0 1 .618.772l-1.046 1.141 2.587-1.493a.5.5 0 0 1 .649.733l-1.167 1.542 2.884-1.66a.5.5 0 0 1 .6.786l-.564.565 1.509-.87a.5.5 0 0 1 .638.747l-.989 1.222 2.233-1.289a.5.5 0 0 1 .673.7l-1.084 1.722 2.6-1.5a.5.5 0 0 1 .632.755l-.827.98 1.726-1a.5.5 0 0 1 .615.774l-.541.578 1.19-.686a.5.5 0 0 1 .6.787l-.235.234.706-.407a.5.5 0 0 1 .668.707l-1.03 1.565 2.079-1.2a.5.5 0 0 1 .665.711l-1.017 1.519 1.94-1.119a.5.5 0 0 1 .617.093.5.5 0 0 1 .045.623l-1 1.446 1.8-1.038a.5.5 0 0 1 .65.731l-.919 1.233 1.542-.889a.5.5 0 0 1 .661.717l-1 1.443 1.631-.941a.5.5 0 0 1 .642.744l-.83 1.044.977-.565a.5.5 0 0 1 .644.74l-.515.66a.5.5 0 0 1 .148.921l-1.669.963a.49.49 0 0 1 -.242.063z"
                fill="#3b7ac8" data-original="#3b7ac8" class=""></path>
            <path
                d="m2.982 22.462a.5.5 0 0 1 -.272-.92l6.475-4.2-7.475 4.316a.5.5 0 0 1 -.531-.846l8.027-5.451-7.849 4.532a.5.5 0 0 1 -.542-.839l4.959-3.561a.5.5 0 0 1 -.234-.932l7.845-4.53a.5.5 0 0 1 .542.839l-4.344 3.119 11-6.349a.5.5 0 0 1 .531.846l-8.028 5.451 12.314-7.109a.5.5 0 0 1 .523.853l-20.474 13.277a.494.494 0 0 1 -.228.288l-1.989 1.154a.5.5 0 0 1 -.25.062z"
                fill="#3b7ac8" data-original="#3b7ac8" class=""></path>
        </g>
        <path xmlns="http://www.w3.org/2000/svg"
            d="m57.075 16.371c-15.088-13.748-45.67-13.742-56.761 4.219.514 2.331 3.372 2.327 4.805.935 13.226-13.246 36.468-13.163 49.673.075a3.049 3.049 0 0 0 2.145.933c4.042-.545 2.918-4.611.138-6.162zm.064 5.08c-14.172-13.451-37.66-14.941-52.321-1.235-2.287 2.941-4.543-.337-1.746-2.3 14.541-13.723 39.057-13.716 53.635-.04 1.112.762 2.603 3.105.432 3.575z"
            fill="#262626" data-original="#262626" class=""></path>

    </g>
</svg>