<svg xmlns="http://www.w3.org/2000/svg" version="1.1" xmlns:xlink="http://www.w3.org/1999/xlink"
    xmlns:svgjs="http://svgjs.com/svgjs" width="512" height="512" x="0" y="0" viewBox="0 0 60 60"
    style="enable-background:new 0 0 512 512" xml:space="preserve" class="">
    <g>
        <g xmlns="http://www.w3.org/2000/svg" fill="#3b7ac8">
            <path
                d="m20.374 36.43a.5.5 0 0 1 -.295-.9l1.963-1.436-3.113 1.8a.5.5 0 0 1 -.552-.831l1.772-1.345-1.835 1.06a.5.5 0 0 1 -.571-.816l.616-.517a.549.549 0 0 1 -.444-.25.5.5 0 0 1 .183-.683l4.43-2.559a.5.5 0 0 1 .572.816l-.348.293 3.809-2.2a.5.5 0 0 1 .551.832l-1.772 1.336 4.206-2.43a.5.5 0 0 1 .545.835l-1.965 1.438 3.75-2.164a.5.5 0 0 1 .59.8l-1.027.95 2.469-1.425a.5.5 0 0 1 .668.707l-1.21 1.841 3.134-1.808a.494.494 0 0 1 .6.081.5.5 0 0 1 .076.606l-1.076 1.839 2.682-1.549a.5.5 0 0 1 .642.122.5.5 0 0 1 -.027.653l-.538.574 1.163-.671a.5.5 0 0 1 .628.761l-.683.786 1.243-.717a.5.5 0 0 1 .651.731l-.856 1.149.706-.407a.5.5 0 1 1 .5.865l-2.805 1.619a.5.5 0 0 1 -.651-.732l.855-1.147-1.724.995a.5.5 0 0 1 -.628-.761l.683-.787-1.5.867a.5.5 0 0 1 -.615-.775l.537-.573-1.409.813a.5.5 0 0 1 -.681-.686l1.082-1.834-3.316 1.914a.5.5 0 0 1 -.668-.707l1.211-1.841-4.5 2.6a.5.5 0 0 1 -.59-.8l1.026-.949-7.895 4.557a.493.493 0 0 1 -.249.06z"
                fill="#3b7ac8" data-original="#3b7ac8" class=""></path>
            <path
                d="m28.852 53.372a.5.5 0 0 1 -.3-.9l.951-.7-1.914 1.1a.5.5 0 0 1 -.565-.821l4.539-3.669-5.827 3.364a.5.5 0 0 1 -.533-.845l.726-.5-.973.562a.5.5 0 0 1 -.547-.835l3.959-2.917-4.284 2.474a.5.5 0 0 1 -.542-.839l3.024-2.171-3 1.732a.5.5 0 0 1 -.561-.824l4.828-3.836-4.551 2.627a.5.5 0 0 1 -.558-.826l3-2.355-2.154 1.244a.5.5 0 0 1 -.6-.792l2.11-2.04a.527.527 0 0 1 -.481-.249.5.5 0 0 1 .183-.682l3.185-1.839a.5.5 0 0 1 .6.792l-1.978 1.913 4.761-2.749a.5.5 0 0 1 .559.826l-3 2.353 4.27-2.465a.5.5 0 0 1 .561.824l-4.831 3.838 5.885-3.4a.5.5 0 0 1 .542.838l-3.021 2.169 3.326-1.92a.5.5 0 0 1 .546.835l-3.958 2.916 4.085-2.358a.5.5 0 0 1 .534.845l-.728.5.48-.277a.5.5 0 0 1 .564.822l-4.539 3.668 4.025-2.324a.5.5 0 0 1 .547.835l-.954.7.035-.019a.5.5 0 0 1 .585.8l-1.774 1.6a.5.5 0 0 1 .117.915l-3.183 1.839a.5.5 0 0 1 -.585-.8l1.252-1.131-3.59 2.085a.494.494 0 0 1 -.248.067z"
                fill="#3b7ac8" data-original="#3b7ac8" class=""></path>
        </g>
        <path xmlns="http://www.w3.org/2000/svg"
            d="m38.641 35.916a2.626 2.626 0 0 0 2.359-.025c7.858-3.992-11.132-9.126-14.994-6.95-2.974.945-8.156 1.714-8.728 5.329a2.565 2.565 0 0 0 3.345 2.1c5.614-3.859 12.225-3.37 18.018-.454zm-2.2-2.193c-8.852-4.568-17.579 4.794-17.712.1 4.594-6.062 15.6-5.17 21.583-1.244.94.654 1.553 2.7-.121 2.929-1.327-.347-2.416-1.377-3.746-1.785z"
            fill="#262626" data-original="#262626" class=""></path>
        <path xmlns="http://www.w3.org/2000/svg"
            d="m32.576 39.006c-12.276-3.192-14.076 16.323-1.087 14.069 7.347-1.154 8.459-12.034 1.087-14.069zm-.49 13.434c-10.013 2.838-11.285-15.168-.79-12.9 6.02 1.485 6.716 10.792.79 12.9z"
            fill="#262626" data-original="#262626" class=""></path>
        <path xmlns="http://www.w3.org/2000/svg"
            d="m32.271 43.55c-1.59.285-2.161 2.433-3.263 3.493-.316-.724-1.906-.606-1.678.252l1 1c1.894.589 2.724-2.71 3.977-3.758.321-.343.711-.937-.036-.987z"
            fill="#262626" data-original="#262626" class=""></path>
    </g>
</svg>